if (_typeface_js && _typeface_js.loadFace) _typeface_js.loadFace({"glyphs":{"0":{"ha":682,"x_min":3,"x_max":672,"o":"m 619 706 q 660 611 647 661 q 672 508 672 561 q 672 485 672 497 q 669 461 671 472 q 619 277 661 367 q 517 125 576 188 q 415 47 471 78 q 301 7 360 17 q 281 5 292 6 q 261 4 271 4 q 149 32 203 4 q 56 122 96 60 q 15 217 28 167 q 3 318 3 267 q 3 342 3 331 q 6 367 4 354 q 58 551 15 461 q 160 703 100 640 q 278 792 214 760 q 411 824 343 824 q 531 792 476 824 q 619 706 585 761 l 619 706 m 525 428 q 531 464 529 444 q 533 506 533 483 q 533 519 533 513 q 532 532 533 525 q 500 638 528 590 q 411 686 472 686 q 277 627 336 686 q 183 496 218 568 q 163 447 172 471 q 150 400 154 422 q 145 364 147 383 q 143 324 143 344 q 143 312 143 318 q 144 300 143 306 q 174 191 147 240 q 265 142 201 142 q 399 201 340 142 q 492 332 458 260 q 513 381 504 357 q 525 428 521 406 l 525 428 z "},"1":{"ha":333,"x_min":0,"x_max":411,"o":"m 411 824 l 144 3 l 0 3 l 267 824 l 411 824 l 411 824 z "},"2":{"ha":738,"x_min":0,"x_max":731,"o":"m 717 496 q 713 485 715 490 q 710 476 711 481 q 654 368 690 421 q 565 271 618 315 q 485 204 526 236 q 400 142 443 172 l 692 142 l 647 3 l 156 3 q 115 -6 135 3 q 79 -26 94 -14 l 0 85 q 70 124 32 108 q 147 142 108 140 q 317 251 235 193 q 475 375 399 308 q 489 388 482 381 q 503 401 496 394 q 558 474 532 433 q 592 558 583 515 q 594 573 593 565 q 594 588 594 581 q 594 603 594 596 q 590 618 593 611 q 553 668 582 654 q 492 685 525 682 q 480 686 486 686 q 468 686 474 686 q 412 676 443 686 q 347 646 381 665 q 274 599 310 625 q 204 544 238 572 q 188 530 196 538 q 171 515 179 522 l 78 617 q 101 639 89 628 q 128 661 114 650 q 280 765 196 717 q 451 824 364 814 q 468 824 460 824 q 485 825 476 825 q 559 815 522 825 q 631 782 596 806 q 707 695 683 747 q 731 586 731 643 q 730 564 731 575 q 726 542 729 553 q 722 518 725 529 q 717 496 719 507 l 717 496 z "},"3":{"ha":726,"x_min":-3,"x_max":722,"o":"m 713 583 q 660 503 699 540 q 569 439 622 467 q 635 363 613 404 q 660 279 657 322 q 661 271 661 275 q 661 263 661 267 q 633 160 661 210 q 553 72 606 110 q 436 19 497 33 q 311 4 375 4 q 228 9 269 4 q 146 19 186 14 q 67 36 106 26 q -3 58 28 46 l 47 186 q 119 165 81 174 q 196 150 157 156 q 260 144 229 146 q 321 142 292 142 q 360 145 338 142 q 407 156 383 149 q 487 194 450 168 q 524 263 524 221 q 488 330 524 304 q 407 369 451 356 q 359 380 382 376 q 319 383 336 383 l 319 521 q 327 521 324 521 q 335 521 331 521 q 423 533 379 522 q 501 560 467 543 q 515 566 508 563 q 529 574 522 569 q 567 601 550 585 q 583 640 583 618 q 564 667 583 658 q 521 681 544 676 q 487 685 503 685 q 464 686 471 686 q 428 685 446 686 q 393 683 410 685 q 322 674 357 679 q 251 664 286 669 l 229 800 q 245 803 238 801 q 263 806 253 804 q 348 818 301 813 q 442 825 394 824 q 449 825 446 825 q 457 825 453 825 q 584 808 524 825 q 683 746 644 792 q 713 696 703 724 q 722 640 722 668 q 719 612 721 626 q 713 583 717 597 l 713 583 z "},"4":{"ha":683,"x_min":-3,"x_max":760,"o":"m 760 824 l 597 321 l 672 321 l 626 183 l 553 183 l 494 3 l 347 3 l 408 183 l -3 183 l 53 353 l 583 824 l 760 824 l 760 824 m 544 607 l 224 321 l 453 321 l 544 607 l 544 607 z "},"5":{"ha":672,"x_min":1,"x_max":646,"o":"m 639 824 l 594 686 l 353 686 l 293 501 q 348 502 319 503 q 406 499 376 501 q 497 481 453 494 q 575 443 540 468 q 628 383 611 417 q 646 313 646 350 q 644 290 646 301 q 640 267 643 278 q 632 242 636 254 q 622 219 628 231 q 438 48 558 92 q 185 3 317 4 q 180 3 182 3 q 176 3 178 3 q 88 6 132 3 q 1 15 43 10 l 19 151 q 97 144 56 147 q 181 140 138 140 q 194 140 188 140 q 207 140 200 140 q 377 172 296 143 q 499 281 458 201 q 504 294 503 288 q 506 307 506 301 q 485 338 506 328 q 442 353 465 349 q 431 355 436 354 q 419 357 425 356 q 376 363 397 361 q 332 364 354 364 q 292 363 313 364 q 251 358 272 361 q 172 346 213 354 q 90 328 132 338 l 254 824 l 639 824 l 639 824 z "},"6":{"ha":608,"x_min":4,"x_max":557,"o":"m 557 301 q 460 95 557 182 q 246 3 363 8 q 239 3 242 3 q 233 3 236 3 q 219 3 226 3 q 206 6 213 4 q 190 7 197 6 q 176 10 183 8 q 49 90 93 29 q 4 228 4 151 q 6 253 4 240 q 10 281 7 267 q 42 388 21 335 q 89 488 63 440 q 203 663 139 578 q 338 824 267 749 l 522 824 l 528 818 q 494 786 511 803 q 458 751 476 769 q 406 696 432 725 q 356 636 381 667 q 310 577 333 607 q 267 515 288 547 q 281 518 274 517 q 296 519 288 519 q 310 521 303 521 q 324 521 317 521 q 488 460 418 521 q 557 301 557 400 l 557 301 m 419 301 q 390 363 419 343 q 324 383 361 383 q 303 382 314 383 q 283 378 293 381 q 185 321 229 364 q 140 222 140 278 q 158 172 140 192 q 207 144 176 151 q 222 142 214 143 q 238 142 229 142 q 252 142 244 142 q 267 144 260 143 q 372 200 324 156 q 419 301 419 244 l 419 301 z "},"7":{"ha":510,"x_min":6,"x_max":583,"o":"m 583 824 q 563 789 574 807 q 542 754 553 771 q 410 527 475 642 q 288 293 344 413 q 225 147 253 219 q 178 3 197 74 l 36 3 q 151 326 74 169 q 311 631 228 483 q 327 658 319 644 q 343 686 335 672 l 6 686 l 6 824 l 583 824 l 583 824 z "},"8":{"ha":785,"x_min":6,"x_max":735,"o":"m 735 633 q 706 534 735 579 q 636 457 678 489 q 699 388 675 428 q 724 296 724 347 q 722 271 724 283 q 717 244 719 258 q 581 78 688 140 q 354 6 475 15 q 333 4 343 4 q 313 4 322 4 q 174 26 240 4 q 64 93 108 47 q 21 156 36 121 q 6 231 6 192 q 8 256 6 243 q 13 281 10 268 q 85 396 31 343 q 208 479 140 449 q 187 524 194 500 q 179 575 179 549 q 181 598 179 586 q 186 622 183 610 q 275 748 207 699 q 421 815 343 797 q 460 822 440 819 q 499 824 479 824 q 515 823 507 824 q 532 822 524 822 q 672 767 608 814 q 735 633 735 719 l 735 633 m 586 296 q 557 347 586 328 q 492 374 528 365 q 451 381 471 379 q 417 383 431 383 q 365 379 394 383 q 304 365 335 375 q 205 320 251 350 q 146 244 158 290 q 144 236 144 240 q 143 228 143 232 q 172 178 143 197 q 238 151 201 160 q 278 144 258 146 q 313 142 299 142 q 367 147 335 142 q 433 163 399 153 q 538 214 490 181 q 586 296 586 247 l 586 296 m 596 622 q 597 628 597 625 q 597 635 597 632 q 579 665 597 654 q 539 682 561 676 q 517 685 528 683 q 499 686 507 686 q 465 683 483 686 q 428 675 447 681 q 359 641 392 664 q 318 585 326 618 q 317 579 317 582 q 317 574 317 576 q 335 542 317 554 q 376 525 354 531 q 398 522 388 524 q 417 521 408 521 q 450 524 432 521 q 488 533 468 526 q 556 567 524 544 q 596 622 588 589 l 596 622 z "},"9":{"ha":556,"x_min":4,"x_max":558,"o":"m 554 557 q 522 446 543 500 q 472 340 500 392 q 358 165 422 250 q 224 3 294 79 l 31 3 q 171 151 104 75 q 293 313 238 228 q 266 308 279 310 q 239 307 253 307 q 76 365 147 307 q 4 526 4 424 q 101 733 4 646 q 313 825 197 819 q 319 825 317 825 q 325 825 322 825 q 356 823 340 825 q 385 818 371 821 q 513 740 467 800 q 558 601 558 679 q 558 580 558 592 q 554 557 557 568 l 554 557 m 421 606 q 403 657 421 636 q 354 683 385 678 q 340 686 347 686 q 324 686 332 686 q 309 685 317 686 q 294 683 301 685 q 190 628 238 672 q 142 526 142 583 q 171 465 142 485 q 238 444 200 444 q 258 446 247 444 q 278 450 268 447 q 376 507 332 464 q 421 606 421 550 l 421 606 z "}," ":{"ha":382,"x_min":0,"x_max":0,"o":""},"!":{"ha":281,"x_min":21,"x_max":432,"o":"m 210 139 l 165 3 l 21 3 l 64 139 l 210 139 l 210 139 m 432 824 l 244 249 l 100 249 l 288 824 l 432 824 l 432 824 z "},"\"":{"ha":194,"x_min":19,"x_max":404,"o":"m 238 857 l 151 697 l 19 697 l 107 857 l 238 857 l 238 857 m 404 857 l 318 697 l 186 697 l 274 857 l 404 857 l 404 857 z "},"#":{"ha":694,"x_min":0,"x_max":0,"o":""},"$":{"ha":568,"x_min":1,"x_max":651,"o":"m 650 714 q 648 698 650 706 q 644 682 646 690 q 628 639 639 660 q 604 600 617 618 q 556 532 581 565 q 508 465 532 499 l 396 544 q 420 578 408 561 q 444 613 432 596 q 467 647 456 629 q 492 681 479 664 q 494 683 493 682 q 496 686 494 685 q 499 692 497 689 q 503 697 501 694 q 506 701 504 699 q 507 706 507 704 q 481 699 494 703 q 454 690 468 694 q 407 669 431 681 q 364 646 383 658 q 351 637 360 643 q 331 622 342 631 q 314 607 322 615 q 300 590 306 599 q 296 580 297 585 q 294 571 294 575 q 297 563 296 567 q 301 556 299 558 q 337 519 319 538 q 371 481 354 500 q 405 444 388 463 q 440 406 422 425 q 458 377 453 393 q 467 344 464 361 q 467 337 467 340 q 467 331 467 333 q 463 298 467 314 q 453 267 460 282 q 393 193 433 221 q 304 165 353 165 q 293 165 299 165 q 282 165 288 165 l 229 3 l 132 3 l 185 165 q 93 165 139 165 q 1 165 47 165 l 46 303 q 176 303 111 303 q 304 303 240 303 q 319 309 314 303 q 328 324 325 315 q 297 359 313 342 q 264 393 281 376 q 233 427 249 410 q 200 463 217 444 q 167 515 178 486 q 158 575 157 544 q 217 703 160 651 q 340 789 274 756 q 368 802 354 796 q 396 814 382 808 l 424 899 l 521 899 l 501 844 q 531 846 517 846 q 557 843 544 846 q 626 802 601 835 q 650 726 651 769 q 650 720 650 724 q 650 714 650 717 l 650 714 z "},"%":{"ha":694,"x_min":0,"x_max":0,"o":""},"&":{"ha":814,"x_min":1,"x_max":843,"o":"m 843 317 l 799 179 l 708 179 q 647 56 704 110 q 519 3 589 3 q 326 3 422 3 q 132 3 229 3 q 33 42 65 3 q 1 132 1 81 q 2 144 1 138 q 4 157 3 150 q 28 224 10 192 q 81 279 47 257 q 108 299 94 289 q 136 318 122 308 q 164 336 150 326 q 192 356 178 346 q 190 358 190 357 q 188 363 189 360 q 155 426 169 392 q 140 499 140 461 q 142 520 140 510 q 147 542 144 531 q 251 671 171 613 q 425 750 332 729 q 464 758 444 756 q 503 760 483 760 q 582 747 544 760 q 647 707 619 735 q 672 674 663 693 q 685 633 682 656 q 686 623 686 628 q 686 613 686 618 q 647 508 686 557 q 561 422 608 460 q 524 394 542 407 q 490 369 506 381 l 411 482 q 438 501 419 488 q 478 532 457 515 q 489 542 483 538 q 501 551 494 547 q 533 583 519 568 q 549 610 547 599 q 528 620 540 617 q 501 622 517 624 q 463 618 483 622 q 422 607 443 614 q 352 572 386 593 q 297 529 318 551 q 285 513 290 521 q 278 499 281 506 q 278 499 278 499 q 278 499 278 499 q 278 497 278 497 q 278 497 278 497 q 292 462 278 489 q 322 406 306 435 q 326 400 325 403 q 329 394 328 397 q 358 345 344 368 q 378 314 372 322 l 157 165 q 155 163 156 164 q 153 161 154 163 q 144 153 149 158 q 139 142 140 147 q 234 142 186 142 q 329 142 282 142 q 424 142 376 142 q 519 142 472 142 q 528 143 524 142 q 539 147 533 144 q 558 161 549 153 q 569 179 567 169 l 446 179 l 490 317 l 843 317 l 843 317 z "},"'":{"ha":53,"x_min":13,"x_max":231,"o":"m 231 857 l 144 697 l 13 697 l 100 857 l 231 857 l 231 857 z "},"(":{"ha":694,"x_min":0,"x_max":0,"o":""},")":{"ha":694,"x_min":0,"x_max":0,"o":""},"*":{"ha":694,"x_min":0,"x_max":0,"o":""},"+":{"ha":694,"x_min":0,"x_max":0,"o":""},",":{"ha":208,"x_min":10,"x_max":199,"o":"m 179 32 l 71 -94 l 10 -42 l 64 21 q 64 22 64 21 q 64 22 64 22 q 63 23 64 22 q 63 24 63 24 q 42 53 49 36 q 35 88 35 69 q 39 116 35 103 q 53 140 43 129 q 82 161 65 154 q 117 168 99 168 q 123 168 119 168 q 131 167 126 168 q 151 160 140 165 q 169 149 161 156 q 192 119 185 136 q 199 85 199 103 q 199 78 199 82 q 197 71 199 75 q 191 51 196 61 q 179 32 186 40 l 179 32 z "},"-":{"ha":308,"x_min":18,"x_max":369,"o":"m 369 483 l 324 346 l 18 346 l 63 483 l 369 483 l 369 483 z "},".":{"ha":182,"x_min":8,"x_max":174,"o":"m 174 86 q 149 27 174 51 q 90 3 125 3 q 33 27 57 3 q 8 86 8 51 q 33 144 8 121 q 90 168 57 168 q 149 144 125 168 q 174 86 174 121 l 174 86 z "},"/":{"ha":694,"x_min":0,"x_max":0,"o":""},":":{"ha":213,"x_min":8,"x_max":229,"o":"m 174 86 q 149 27 174 51 q 90 3 125 3 q 33 27 57 3 q 8 86 8 51 q 33 144 8 121 q 90 168 57 168 q 149 144 125 168 q 174 86 174 121 l 174 86 m 229 308 q 205 249 229 274 q 146 225 181 225 q 88 249 113 225 q 64 308 64 274 q 88 367 64 343 q 146 390 113 390 q 205 367 181 390 q 229 308 229 343 l 229 308 z "},";":{"ha":239,"x_min":10,"x_max":229,"o":"m 179 32 l 71 -94 l 10 -42 l 64 21 q 64 22 64 21 q 64 22 64 22 q 63 23 64 22 q 63 24 63 24 q 42 53 49 36 q 35 88 35 69 q 39 116 35 103 q 53 140 43 129 q 82 161 65 154 q 117 168 99 168 q 123 168 119 168 q 131 167 126 168 q 151 160 140 165 q 169 149 161 156 q 192 119 185 136 q 199 85 199 103 q 199 78 199 82 q 197 71 199 75 q 191 51 196 61 q 179 32 186 40 l 179 32 m 229 308 q 205 249 229 274 q 146 225 181 225 q 88 249 113 225 q 64 308 64 274 q 88 367 64 343 q 146 390 113 390 q 205 367 181 390 q 229 308 229 343 l 229 308 z "},"<":{"ha":694,"x_min":0,"x_max":0,"o":""},"=":{"ha":694,"x_min":0,"x_max":0,"o":""},">":{"ha":694,"x_min":0,"x_max":0,"o":""},"?":{"ha":482,"x_min":10,"x_max":557,"o":"m 239 142 l 193 3 l 49 3 l 93 142 l 239 142 l 239 142 m 557 690 q 519 574 557 622 q 435 483 481 526 q 426 476 431 481 q 418 469 422 472 q 415 466 417 468 q 411 463 413 464 q 398 451 404 457 q 385 439 392 444 q 371 426 378 432 q 357 414 364 419 q 295 350 322 381 q 261 299 268 319 l 243 244 l 104 244 q 109 262 107 253 q 114 281 111 271 q 123 316 118 299 q 131 342 128 333 q 151 385 138 363 q 182 429 164 407 q 228 479 203 454 q 278 528 253 504 q 298 547 288 538 q 318 565 308 556 q 376 619 350 594 q 406 653 401 643 q 414 670 411 663 q 418 685 417 678 q 408 686 414 686 q 392 686 401 686 q 300 686 346 686 q 208 686 254 686 q 164 670 181 686 q 147 632 147 654 q 148 626 147 629 q 149 619 149 622 q 158 601 151 610 q 174 583 164 592 l 86 476 q 30 548 50 507 q 10 632 10 589 q 10 648 10 640 q 13 664 11 656 q 16 680 14 672 q 21 696 18 688 q 94 790 43 756 q 208 824 146 824 q 300 824 254 824 q 392 824 346 824 q 506 792 456 824 q 557 690 557 760 l 557 690 z "},"@":{"ha":1113,"x_min":0,"x_max":1103,"o":"m 1103 257 l 1071 149 l 843 104 q 831 102 838 103 q 818 101 825 101 q 783 109 800 101 q 756 132 767 117 l 740 85 l 667 69 q 657 68 661 68 q 649 68 653 68 q 599 88 618 68 q 582 138 581 107 q 583 152 582 144 q 586 168 585 160 q 592 188 589 178 q 600 210 596 199 q 603 219 601 215 q 606 229 604 224 q 615 260 611 244 q 621 289 619 275 q 565 239 592 271 q 518 172 538 207 q 499 136 507 154 q 485 103 490 118 l 461 29 l 353 10 l 515 539 l 408 501 l 221 -156 l 122 -144 l 296 465 l 13 372 l 0 471 l 329 579 l 356 674 l 454 663 l 442 615 l 550 653 l 596 804 l 704 824 l 664 692 l 775 731 l 789 632 l 629 576 l 563 363 q 595 383 578 374 q 629 396 613 392 q 642 398 636 397 q 653 399 647 399 q 657 399 656 399 q 661 399 658 399 q 665 398 663 399 q 668 397 667 397 q 710 370 697 393 q 724 317 724 347 q 719 282 724 301 q 708 240 715 263 q 703 224 706 232 q 699 208 701 217 q 695 192 697 200 q 690 176 693 185 l 742 188 q 743 207 742 197 q 747 226 744 217 q 756 256 751 242 q 765 285 760 271 q 819 380 786 340 q 888 443 851 419 q 915 458 901 451 q 940 469 928 465 q 967 477 954 475 q 994 479 981 479 q 1051 462 1028 479 q 1075 408 1075 444 q 1073 390 1075 400 q 1068 369 1071 381 q 1033 308 1058 343 q 961 228 1008 272 l 1103 257 l 1103 257 m 968 376 q 908 340 935 368 q 867 281 882 313 q 863 272 865 276 q 860 264 861 268 q 933 331 908 303 q 968 376 958 358 l 968 376 z "},"A":{"ha":790,"x_min":-4,"x_max":846,"o":"m 838 681 q 844 644 842 664 q 846 604 846 625 q 832 482 846 551 q 790 325 818 413 l 685 4 l 540 4 l 606 203 l 294 203 q 295 153 293 178 q 300 101 297 128 q 308 61 303 82 q 317 21 313 40 q 331 -26 324 -3 q 344 -74 338 -50 q 348 -87 346 -81 q 351 -99 350 -93 l 219 -139 q 190 -31 204 -86 q 165 79 175 24 q 160 110 163 94 q 157 142 158 125 q 155 172 156 157 q 154 203 154 188 l -4 203 l 40 342 l 175 342 q 247 522 201 439 q 349 667 293 604 q 438 748 392 714 q 533 801 485 782 q 589 819 561 813 q 643 825 617 825 q 770 792 721 825 q 838 681 819 758 l 838 681 m 706 649 q 684 678 700 669 q 643 688 668 688 q 583 674 615 688 q 517 635 550 660 q 484 607 500 622 q 451 574 468 592 q 370 464 404 522 q 317 342 336 406 l 650 342 l 658 367 q 698 508 686 449 q 710 608 710 567 q 709 630 710 619 q 706 649 708 640 l 706 649 z "},"B":{"ha":597,"x_min":-1,"x_max":697,"o":"m 696 715 q 697 701 697 708 q 697 686 697 693 q 654 541 697 613 q 560 407 611 469 q 520 359 540 382 q 483 315 500 336 q 513 250 499 283 q 540 183 526 217 q 550 153 547 169 q 553 119 553 136 q 526 40 553 75 q 447 4 500 4 l -1 4 l 43 142 l 408 142 q 367 240 388 190 q 325 338 346 289 q 364 385 344 361 q 403 433 383 408 q 440 481 421 457 q 479 528 460 504 q 526 593 507 561 q 553 651 544 625 q 559 672 557 663 q 561 689 561 681 q 552 707 561 700 q 524 715 543 714 q 477 706 501 717 q 428 672 453 694 q 407 654 417 664 q 388 633 397 644 q 313 528 347 590 q 254 394 278 467 q 228 295 239 347 q 215 190 218 243 l 78 190 q 92 316 81 254 q 124 438 104 378 q 193 597 151 524 q 285 726 235 671 q 392 815 331 778 q 522 853 454 853 q 554 850 538 853 q 588 842 571 847 q 661 796 632 828 q 696 715 690 764 l 696 715 z "},"C":{"ha":632,"x_min":1,"x_max":765,"o":"m 710 824 q 753 774 740 801 q 765 714 765 746 q 764 693 765 704 q 760 672 763 682 q 738 609 753 640 q 706 551 722 578 q 657 485 685 519 q 597 418 629 451 q 497 320 551 368 q 388 229 443 272 q 384 226 386 228 q 379 222 382 224 l 296 331 q 385 404 342 365 q 468 482 429 443 q 536 556 506 519 q 589 625 567 592 q 597 637 592 628 q 608 658 603 646 q 611 664 610 661 q 614 669 613 667 q 625 694 621 682 q 629 711 629 706 q 629 712 629 711 q 629 713 629 713 q 628 714 628 714 q 628 714 628 714 q 610 723 619 721 q 590 725 601 725 q 562 722 576 725 q 533 713 547 718 q 503 699 518 706 q 475 683 489 692 q 447 665 460 674 q 426 651 435 657 q 385 620 407 638 q 343 582 364 603 q 231 456 283 526 q 154 310 178 385 q 144 268 147 289 q 140 226 140 247 q 155 166 140 190 q 208 142 169 142 q 297 142 247 142 q 399 142 347 142 q 500 142 450 142 q 589 142 550 142 l 544 4 q 467 4 511 4 q 378 4 424 4 q 286 4 331 4 q 208 4 242 4 q 56 69 111 4 q 1 226 1 133 q 2 243 1 235 q 3 260 3 251 q 101 509 15 388 q 288 715 186 631 q 317 740 303 728 q 347 763 332 751 q 355 768 351 765 q 363 772 358 771 q 448 822 401 799 q 543 854 494 846 q 569 858 556 857 q 596 860 583 860 q 655 851 626 860 q 710 824 683 843 l 710 824 z "},"D":{"ha":794,"x_min":0,"x_max":871,"o":"m 826 754 q 860 692 850 725 q 871 621 871 658 q 838 483 871 556 q 743 338 804 411 q 661 250 707 293 q 561 165 615 207 q 464 100 511 128 q 369 53 417 72 q 351 45 360 49 q 332 39 342 42 q 270 22 301 28 q 208 11 239 15 q 116 5 163 6 q 22 4 69 4 q 11 4 17 4 q 0 4 6 4 l 175 540 l 319 540 l 192 147 q 342 192 272 158 q 476 274 413 225 q 528 317 496 289 q 596 379 561 344 q 651 438 624 407 q 699 501 678 469 q 727 558 717 531 q 738 613 738 586 q 732 647 738 631 q 713 676 726 663 l 713 678 q 672 700 699 693 q 610 707 646 707 q 564 704 588 707 q 514 697 540 701 q 335 651 431 683 q 140 572 239 618 q 102 556 121 564 q 65 538 83 547 l 6 663 q 53 685 29 674 q 103 707 78 696 q 303 783 204 750 q 490 832 403 817 q 547 840 518 838 q 607 843 576 843 q 612 843 610 843 q 617 843 614 843 q 733 822 676 842 q 826 754 789 803 l 826 754 z "},"E":{"ha":763,"x_min":0,"x_max":818,"o":"m 810 750 q 816 726 814 738 q 818 703 818 714 q 772 588 818 642 q 669 492 725 535 q 613 450 640 469 q 564 415 585 431 l 479 525 q 513 549 483 528 q 578 597 543 569 q 591 608 585 603 q 604 618 597 613 q 656 665 635 643 q 678 700 678 688 q 677 705 678 703 q 674 708 676 707 q 649 718 663 715 q 621 721 636 721 q 599 719 610 721 q 575 715 588 718 q 533 704 554 711 q 496 690 513 697 q 482 684 489 688 q 469 678 475 681 q 443 662 461 674 q 406 636 425 650 q 378 613 392 625 q 356 589 365 601 q 342 567 347 578 q 336 546 336 556 q 337 538 336 542 q 339 532 338 535 l 338 535 l 440 354 q 392 319 417 336 q 344 283 368 301 q 250 213 297 249 q 156 142 203 178 l 735 142 l 690 4 q 423 4 557 4 q 154 4 289 4 q 40 40 81 4 q 0 125 0 76 q 2 144 0 135 q 7 164 4 154 q 32 210 15 188 q 75 253 49 233 q 122 287 99 269 q 168 322 144 304 q 215 358 192 340 q 261 392 238 375 q 257 399 260 396 q 253 406 254 403 q 249 411 251 408 q 246 417 247 414 q 213 476 228 446 q 197 543 199 507 q 295 727 197 644 q 511 840 393 810 q 567 852 539 849 q 621 856 594 856 q 690 848 657 856 q 749 824 722 840 q 786 792 771 810 q 810 750 801 774 l 810 750 z "},"F":{"ha":704,"x_min":3,"x_max":858,"o":"m 858 825 l 814 688 l 686 688 l 592 396 l 722 396 l 678 257 l 547 257 l 457 -18 l 296 -68 l 403 257 l 290 257 l 335 396 l 447 396 l 542 688 l 169 688 q 147 683 154 688 q 140 671 140 678 q 149 647 140 661 q 169 619 157 633 q 177 610 174 615 q 185 601 181 606 q 211 574 199 586 q 228 556 224 561 l 122 469 q 105 490 114 479 q 88 511 96 500 q 29 592 56 549 q 3 685 3 636 q 52 785 3 746 q 232 825 101 825 l 858 825 l 858 825 z "},"G":{"ha":718,"x_min":1,"x_max":821,"o":"m 775 575 q 707 482 749 531 q 611 385 665 433 q 580 357 596 371 q 547 329 564 343 l 460 435 q 473 446 467 440 q 486 457 479 451 q 588 556 544 507 q 657 646 632 604 q 662 656 658 649 q 669 671 665 663 q 672 675 671 674 q 672 678 672 676 q 680 696 676 688 q 683 708 683 704 q 683 709 683 708 q 683 710 683 710 q 682 711 682 711 q 682 711 682 711 q 668 719 676 717 q 649 721 660 721 q 618 717 635 721 q 583 704 601 713 q 558 694 571 700 q 535 681 546 688 q 506 664 519 672 q 483 650 492 656 q 444 625 464 639 q 406 596 425 611 q 247 439 322 529 q 147 251 172 349 q 142 228 144 242 q 139 200 140 214 q 139 194 139 197 q 139 189 139 192 q 149 140 139 163 q 185 110 158 117 q 212 105 199 107 q 238 103 225 103 q 373 143 310 103 q 490 231 436 183 q 494 235 492 233 q 499 239 496 238 q 510 270 504 254 q 522 301 517 286 l 651 253 q 509 -79 588 85 q 318 -386 431 -243 l 210 -303 q 311 -155 265 -232 q 396 1 357 -78 q 319 -24 358 -14 q 239 -32 281 -33 q 195 -30 217 -32 q 150 -21 174 -28 q 56 35 93 -7 q 7 135 18 76 q 4 151 6 143 q 3 165 3 158 q 1 180 1 172 q 1 196 1 188 q 1 210 1 203 q 3 225 1 217 q 99 469 14 350 q 286 674 185 588 q 349 725 318 701 q 410 767 381 749 q 415 770 413 768 q 421 774 418 772 q 503 818 458 797 q 593 849 547 839 q 623 853 608 851 q 653 856 638 856 q 712 847 683 856 q 765 819 740 839 q 808 769 796 797 q 821 711 821 742 q 819 692 821 701 q 817 671 818 682 q 800 622 811 646 q 775 575 789 597 l 775 575 z "},"H":{"ha":660,"x_min":4,"x_max":818,"o":"m 818 892 l 499 -85 l 354 -85 l 467 257 l 269 257 l 186 4 l 42 4 l 125 257 l 4 257 l 49 396 l 169 396 l 308 825 l 453 825 l 314 396 l 511 396 l 674 892 l 818 892 l 818 892 z "},"I":{"ha":651,"x_min":1,"x_max":754,"o":"m 744 653 q 672 428 708 540 q 600 206 636 317 q 496 63 574 122 q 331 4 418 4 l 1 4 l 46 142 q 117 142 82 142 q 189 142 153 142 q 260 142 224 142 q 331 142 296 142 q 342 142 336 142 q 353 144 347 143 q 424 183 390 153 q 469 247 458 213 q 506 359 488 303 q 542 471 524 415 q 578 583 560 526 q 614 694 596 639 q 616 701 615 697 q 617 706 617 704 q 606 708 611 708 q 594 708 601 708 q 570 705 583 708 q 544 697 557 701 q 515 683 529 690 q 488 667 500 675 q 465 652 475 660 q 447 639 456 644 q 422 620 436 631 q 393 597 407 610 q 331 533 360 569 q 303 457 303 497 q 305 438 303 447 q 311 419 307 429 q 332 382 319 400 q 358 346 344 364 q 360 343 358 344 q 363 340 361 342 q 372 327 367 333 q 381 314 376 321 l 264 239 q 250 260 257 250 q 236 279 243 269 q 209 319 222 299 q 185 364 196 340 q 170 411 175 388 q 165 458 165 435 q 190 564 165 513 q 254 654 214 615 q 288 685 269 669 q 325 718 306 701 q 421 787 369 754 q 525 835 472 819 q 563 844 544 842 q 600 847 582 847 q 649 841 625 847 q 694 819 672 835 q 740 769 726 799 q 754 707 754 739 q 751 680 754 693 q 744 653 749 667 l 744 653 z "},"J":{"ha":689,"x_min":3,"x_max":728,"o":"m 718 653 q 635 397 676 525 q 551 142 593 269 l 682 142 l 638 4 l 507 4 q 499 -17 503 -6 q 493 -40 496 -29 q 490 -49 492 -44 q 488 -57 489 -53 q 439 -194 467 -128 q 347 -308 411 -261 q 308 -334 328 -324 q 269 -351 289 -344 q 194 -366 232 -364 q 111 -368 156 -368 q 108 -368 110 -368 q 106 -368 107 -368 q 47 -354 71 -368 q 13 -315 24 -340 q 5 -295 7 -306 q 3 -274 3 -285 q 19 -210 3 -242 q 54 -153 35 -179 q 65 -139 60 -146 q 75 -126 71 -132 q 103 -94 88 -111 q 136 -61 118 -78 q 214 8 172 -25 q 299 69 256 42 q 351 99 325 86 q 401 122 376 113 q 448 265 425 193 q 494 408 471 336 q 541 552 518 481 q 588 694 564 624 q 590 701 589 697 q 590 706 590 704 q 580 708 585 708 q 568 708 575 708 q 544 706 557 708 q 518 697 531 703 q 490 683 504 692 q 461 667 475 675 q 440 652 450 660 q 421 639 429 644 q 394 619 408 631 q 365 596 381 608 q 303 532 332 568 q 275 456 275 496 q 277 438 275 447 q 283 419 279 429 q 305 383 293 401 q 329 349 317 365 q 333 344 331 346 q 336 340 335 342 q 345 327 340 333 q 354 314 350 321 l 239 239 q 227 256 233 247 q 215 272 221 264 q 213 276 214 274 q 210 279 211 278 q 183 319 196 299 q 158 364 169 340 q 144 411 149 388 q 139 458 139 435 q 163 564 139 513 q 228 654 188 615 q 261 685 243 669 q 299 718 279 701 q 394 787 343 754 q 499 835 446 819 q 537 844 518 842 q 574 847 556 847 q 622 841 599 847 q 668 819 646 835 q 714 769 700 799 q 728 708 728 740 q 727 694 728 701 q 725 681 726 688 q 723 667 725 674 q 718 653 721 660 l 718 653 m 342 -64 q 249 -141 294 -99 q 168 -231 204 -183 q 262 -201 218 -231 q 321 -124 306 -172 q 326 -108 324 -115 q 332 -93 329 -100 q 336 -78 333 -86 q 342 -62 339 -71 l 342 -64 z "},"K":{"ha":735,"x_min":3,"x_max":928,"o":"m 414 825 l 147 4 l 3 4 l 269 825 l 414 825 l 414 825 m 928 825 l 410 306 l 649 4 l 472 4 l 297 225 q 297 226 297 226 q 297 226 297 226 q 297 226 297 226 q 296 228 296 226 q 293 231 294 229 q 289 236 292 233 q 267 269 278 251 q 257 307 257 286 q 268 348 257 326 q 306 396 279 369 l 733 825 l 928 825 l 928 825 z "},"L":{"ha":679,"x_min":1,"x_max":700,"o":"m 669 593 l 539 354 l 418 419 q 451 480 435 450 q 483 540 468 510 q 516 599 500 569 q 549 660 532 629 q 559 678 556 671 q 561 689 563 686 q 559 693 561 692 q 553 694 557 694 q 540 693 547 694 q 522 689 533 692 q 504 684 514 688 q 486 676 494 681 q 415 622 449 658 q 363 532 381 586 l 236 142 l 639 142 l 594 4 l 149 4 q 100 -33 126 -15 q 46 -68 74 -51 l 1 65 q 63 111 36 88 q 97 160 89 135 q 131 264 114 213 q 165 368 149 315 q 199 472 182 419 q 232 575 215 524 q 315 716 260 660 q 431 801 371 772 q 461 813 446 808 q 490 822 476 818 q 520 828 506 826 q 549 829 535 829 q 658 793 615 829 q 699 696 700 757 q 692 647 699 672 q 669 593 685 621 l 669 593 z "},"M":{"ha":1071,"x_min":-1,"x_max":1093,"o":"m 1093 825 q 1083 802 1088 814 q 1071 778 1078 790 q 1070 776 1071 776 q 1069 774 1069 775 q 1046 723 1057 747 q 1026 683 1035 699 q 1006 640 1017 663 q 985 592 994 617 q 962 542 972 568 q 940 492 951 517 q 890 352 911 421 q 869 231 869 283 q 891 167 869 192 q 968 140 913 142 l 1036 140 l 992 4 l 968 4 q 784 67 838 4 q 732 231 731 129 q 735 278 732 254 q 743 328 738 303 q 631 171 688 251 q 510 4 574 90 l 363 4 l 467 425 q 326 213 399 318 q 172 4 253 107 l -1 4 q 64 90 31 46 q 131 181 97 133 q 198 276 164 228 q 265 374 232 325 q 384 553 326 464 q 492 722 442 643 q 522 770 507 746 q 557 825 538 794 l 708 825 l 590 351 q 610 380 600 365 q 631 408 621 394 q 652 437 642 422 q 672 465 663 451 q 797 640 733 551 q 929 825 860 729 l 1093 825 l 1093 825 z "},"N":{"ha":882,"x_min":6,"x_max":1038,"o":"m 1038 825 q 1003 744 1022 788 q 965 657 985 701 q 957 638 961 647 q 949 619 953 628 q 906 526 926 571 q 867 446 885 482 q 763 263 818 353 q 644 93 707 172 q 636 83 640 88 q 628 72 632 78 q 574 25 604 47 q 510 3 544 3 q 499 3 504 3 q 486 6 493 4 q 431 49 446 17 q 414 118 415 82 q 413 133 413 125 q 414 147 414 140 q 427 286 419 213 q 444 438 435 360 q 411 376 428 407 q 376 317 394 346 q 276 153 326 232 q 176 4 226 74 l 6 4 q 58 76 31 38 q 114 157 86 115 q 142 199 128 178 q 169 242 156 221 q 215 315 193 279 q 257 386 238 351 q 335 525 296 454 q 411 667 374 596 q 453 747 432 707 q 493 825 474 786 l 633 825 q 626 767 631 799 q 618 703 622 735 q 617 696 618 700 q 617 689 617 692 q 607 619 611 653 q 599 558 603 585 q 591 499 594 529 q 583 439 588 469 q 569 320 576 379 q 557 204 563 261 q 656 351 608 274 q 743 508 703 428 q 821 672 785 590 q 886 825 857 753 l 1038 825 l 1038 825 z "},"O":{"ha":857,"x_min":4,"x_max":1010,"o":"m 1010 596 l 965 458 l 810 458 q 665 143 803 282 q 350 4 528 4 q 317 6 333 4 q 283 10 300 7 q 81 129 157 32 q 4 353 4 226 q 144 680 4 535 q 468 825 283 825 q 667 763 579 825 q 792 596 756 701 l 1010 596 l 1010 596 m 672 458 q 663 458 668 458 q 654 458 658 458 q 578 464 614 458 q 515 508 542 469 q 499 542 504 525 q 493 574 493 558 q 500 618 493 596 q 515 664 507 640 q 518 672 517 668 q 521 681 519 676 q 494 685 507 683 q 468 688 481 688 q 240 583 339 688 q 142 353 142 479 q 199 202 142 263 q 347 142 256 142 q 567 239 471 142 q 672 458 664 336 l 672 458 z "},"P":{"ha":815,"x_min":-1,"x_max":892,"o":"m 889 599 q 880 544 886 572 q 867 489 874 517 q 756 275 833 372 q 550 178 679 178 q 506 178 528 178 q 461 178 483 178 q 417 178 439 178 q 372 178 394 178 l 417 317 q 444 317 431 317 q 469 317 457 317 q 507 317 488 317 q 550 317 526 317 q 664 383 614 317 q 739 531 714 450 q 751 585 747 558 q 756 638 756 613 q 754 667 756 653 q 749 692 753 681 q 746 695 747 694 q 742 696 744 696 q 727 692 736 696 q 708 683 718 689 q 702 681 706 682 q 696 678 699 679 q 676 666 685 671 q 667 660 668 661 q 433 413 535 551 q 240 129 331 274 q 208 80 224 104 q 178 31 193 56 q 169 17 174 24 q 161 4 165 11 l -1 4 q 4 13 1 8 q 10 21 7 17 q 12 25 11 24 q 14 28 13 26 q 33 60 24 44 q 47 83 42 75 q 67 118 57 100 q 88 154 78 136 q 133 238 111 194 q 176 326 156 282 q 221 428 200 378 q 257 525 242 479 q 264 552 258 531 q 275 599 269 574 q 276 602 276 600 q 276 606 276 604 q 289 662 283 636 q 294 688 294 688 q 251 688 274 688 q 208 688 229 688 q 164 688 186 688 q 121 688 142 688 l 165 825 l 249 825 q 376 797 322 825 q 426 663 429 768 q 426 656 426 660 q 426 650 426 653 q 424 632 425 642 q 421 611 422 622 q 455 649 436 629 q 493 690 474 669 q 610 788 546 743 q 742 832 674 832 q 749 832 746 832 q 756 831 753 832 q 762 830 758 831 q 769 829 765 829 q 865 765 840 817 q 892 653 890 713 q 892 650 892 651 q 892 647 892 649 q 891 622 892 635 q 889 599 890 610 l 889 599 z "},"Q":{"ha":803,"x_min":8,"x_max":849,"o":"m 840 706 q 844 693 843 700 q 847 681 846 686 q 848 667 847 674 q 849 654 849 661 q 848 635 849 644 q 844 615 847 625 q 802 508 835 561 q 733 411 769 456 q 710 386 721 399 q 689 363 700 374 l 782 363 l 736 225 l 544 225 q 493 182 519 203 q 439 142 467 161 l 806 142 l 761 4 l 192 4 q 128 -13 158 4 q 72 -57 97 -31 q 45 -3 54 -28 q 36 44 36 22 q 72 117 36 92 q 160 142 108 142 q 239 182 200 161 q 315 225 278 203 q 307 225 311 225 q 299 225 303 225 q 128 257 208 226 q 18 388 47 288 q 10 420 13 404 q 8 451 8 436 q 142 694 10 586 q 432 842 274 801 q 508 858 471 853 q 582 863 546 863 q 743 826 672 863 q 840 706 814 789 l 840 706 m 710 664 q 664 713 699 700 q 589 726 629 726 q 578 726 583 726 q 567 725 572 726 q 517 719 542 724 q 472 710 493 715 q 456 706 464 708 q 442 701 449 703 q 391 683 418 693 q 335 658 364 672 q 223 585 275 628 q 153 486 171 542 q 148 467 150 476 q 147 449 146 457 q 182 384 147 406 q 264 363 217 363 q 378 363 321 363 q 493 363 436 363 q 536 403 507 375 q 597 467 565 432 q 622 495 610 481 q 646 524 635 510 q 692 592 674 558 q 711 650 711 625 q 711 658 711 654 q 710 664 711 661 l 710 664 z "},"R":{"ha":953,"x_min":4,"x_max":1054,"o":"m 999 486 q 854 340 943 397 q 667 251 765 282 q 708 201 689 229 q 740 142 726 174 l 897 142 l 851 4 l 650 4 q 647 12 649 8 q 644 19 646 15 q 565 155 611 99 q 401 214 518 211 l 446 353 q 485 356 465 354 q 525 361 506 358 q 728 422 631 378 q 883 560 825 467 q 889 569 886 564 q 894 579 892 574 q 902 594 899 586 q 910 608 906 601 q 916 627 914 618 q 918 644 918 636 q 908 668 917 658 q 879 679 900 678 q 796 667 844 682 q 683 614 747 651 q 440 401 546 531 q 242 132 333 271 q 201 68 221 100 q 160 4 181 36 l 4 4 q 132 226 69 111 q 242 457 194 340 q 258 496 250 476 q 272 535 265 515 q 298 611 288 576 q 310 672 308 646 q 306 684 310 681 q 290 688 303 688 l 146 688 l 190 825 l 271 825 q 399 797 344 825 q 446 664 453 769 q 442 630 446 647 q 433 592 439 613 q 476 631 453 610 q 528 672 500 651 q 633 742 576 708 q 747 797 689 776 q 808 813 778 807 q 868 819 839 819 q 938 809 904 819 q 999 774 971 799 q 1042 717 1029 749 q 1054 650 1054 685 q 1053 634 1054 642 q 1051 619 1053 626 q 1032 549 1046 583 q 999 486 1018 515 l 999 486 z "},"S":{"ha":729,"x_min":1,"x_max":840,"o":"m 821 789 q 836 753 832 772 q 840 715 840 735 q 840 703 840 710 q 839 690 839 696 q 818 622 833 656 q 785 563 803 589 q 722 474 753 518 q 658 386 690 431 l 546 465 q 609 554 578 510 q 672 642 640 599 q 682 656 678 649 q 690 672 686 664 q 698 692 694 682 q 703 711 701 703 q 667 708 689 713 q 614 690 646 703 q 576 676 596 683 q 535 658 556 668 q 505 644 519 651 q 476 628 490 636 q 457 615 468 622 q 435 597 446 607 q 399 563 415 582 q 379 524 383 543 q 378 517 378 519 q 378 511 378 514 q 381 494 378 503 q 392 478 385 486 q 481 380 436 429 q 571 282 526 331 q 591 250 585 268 q 600 213 597 232 q 600 206 600 210 q 600 200 600 203 q 596 160 600 179 q 583 122 592 140 q 515 37 561 69 q 408 4 468 4 l 1 4 l 46 142 q 227 142 136 142 q 408 142 318 142 q 445 158 429 142 q 463 196 461 175 q 420 243 442 219 q 376 290 399 267 q 333 338 354 314 q 289 385 311 361 q 251 447 263 413 q 239 515 239 481 q 310 670 242 606 q 461 775 379 735 q 515 800 489 789 q 567 821 542 811 q 622 838 592 831 q 683 849 653 846 q 692 849 688 849 q 701 849 697 849 q 769 835 738 849 q 821 789 800 822 l 821 789 z "},"T":{"ha":632,"x_min":4,"x_max":763,"o":"m 763 688 l 553 660 l 349 -17 l 217 22 l 403 640 l 22 589 l 4 725 l 447 783 l 483 903 l 615 863 l 597 804 l 744 824 l 763 688 l 763 688 z "},"U":{"ha":696,"x_min":7,"x_max":810,"o":"m 810 825 q 783 775 796 800 q 756 724 769 750 q 747 709 751 717 q 740 694 743 701 q 719 657 729 676 q 703 618 710 638 q 663 499 682 558 q 624 381 643 439 q 612 340 618 360 q 599 300 606 321 q 574 222 586 261 q 549 142 561 182 l 685 142 l 644 4 l 529 4 q 453 32 486 4 q 410 100 419 60 q 312 30 364 56 q 199 4 260 4 q 49 60 92 4 q 7 206 7 117 q 33 370 7 289 q 89 531 58 451 q 108 580 99 556 q 126 629 118 604 q 140 672 136 657 q 144 692 144 686 q 144 697 144 694 q 140 699 143 699 q 111 707 126 704 q 81 713 96 710 q 76 714 78 714 q 71 715 74 714 q 51 718 61 717 q 32 722 42 719 l 60 856 q 79 852 69 854 q 99 849 89 850 q 105 848 101 849 q 111 847 108 847 q 149 840 129 844 q 186 829 168 836 q 263 776 242 810 q 283 703 283 743 q 279 660 283 682 q 268 617 275 639 q 257 585 263 601 q 246 553 251 569 q 238 536 242 544 q 232 519 235 528 q 219 487 226 504 q 206 451 213 469 q 191 410 199 431 q 176 367 183 389 q 153 282 163 324 q 144 206 144 240 q 156 160 144 178 q 199 142 168 142 q 374 273 296 142 q 525 561 453 404 q 531 574 528 568 q 538 588 535 581 q 542 598 540 593 q 547 607 544 603 q 561 637 554 622 q 574 667 568 651 q 593 719 585 693 q 608 772 601 746 q 610 776 610 774 q 611 779 611 778 q 617 802 614 790 q 625 825 621 814 l 810 825 l 810 825 z "},"V":{"ha":531,"x_min":3,"x_max":718,"o":"m 718 825 q 713 817 715 821 q 708 807 711 813 q 683 762 694 783 q 665 732 671 740 q 638 688 651 710 q 613 643 625 665 q 415 332 518 488 q 179 26 311 176 q 146 3 165 11 q 106 -7 126 -4 q 101 -7 104 -7 q 96 -7 99 -7 q 35 12 61 -7 q 6 69 8 31 q 6 203 3 133 q 17 343 10 272 q 35 495 24 419 q 58 640 46 571 q 75 738 67 692 q 90 825 83 785 l 229 825 q 224 800 226 813 q 219 775 222 788 q 172 487 194 631 q 143 199 149 343 q 351 485 256 336 q 539 788 447 635 q 550 806 544 796 q 561 825 556 815 l 718 825 l 718 825 z "},"W":{"ha":913,"x_min":0,"x_max":1078,"o":"m 1078 825 q 985 672 1033 751 q 886 511 938 592 q 715 254 804 381 q 538 26 626 128 q 504 3 524 11 q 464 -7 485 -4 q 460 -7 463 -7 q 454 -7 457 -7 q 393 12 419 -7 q 364 69 367 31 q 364 168 363 118 q 368 269 365 218 q 275 146 324 207 q 175 26 226 85 q 142 3 161 11 q 101 -7 122 -4 q 97 -7 100 -7 q 92 -7 94 -7 q 31 12 58 -7 q 3 69 4 31 q 3 203 0 133 q 13 343 6 272 q 31 497 21 421 q 54 643 42 574 q 71 740 63 694 q 86 825 79 786 l 228 825 q 223 801 225 813 q 219 776 221 789 q 209 723 214 750 q 199 669 204 696 q 160 435 178 551 q 139 199 143 318 q 196 269 168 233 q 250 342 224 304 q 275 375 250 339 q 329 457 300 411 q 331 458 331 457 q 332 460 332 460 q 376 525 356 494 q 404 569 396 556 q 410 606 407 588 q 415 640 413 624 q 433 738 425 692 q 449 825 442 785 l 586 825 q 570 736 579 786 q 553 629 561 686 q 542 559 547 596 q 531 486 536 522 q 512 333 519 408 q 501 199 504 258 q 710 485 614 336 q 897 788 806 635 q 908 806 903 796 q 919 825 914 815 l 1078 825 l 1078 825 z "},"X":{"ha":872,"x_min":0,"x_max":968,"o":"m 968 694 q 783 617 876 671 q 593 481 689 563 l 800 4 l 650 4 l 486 382 q 327 206 406 301 q 171 4 249 111 l 0 4 q 124 172 60 90 q 251 329 188 254 q 340 428 296 381 q 428 517 385 475 l 294 825 l 444 825 l 536 613 q 635 687 586 653 q 735 747 685 721 q 834 795 785 775 q 933 828 883 815 l 968 694 l 968 694 z "},"Y":{"ha":631,"x_min":8,"x_max":788,"o":"m 788 825 q 713 679 749 753 q 642 531 676 606 q 635 517 639 524 q 628 504 632 510 q 625 499 626 501 q 622 493 624 496 q 609 465 615 479 q 597 436 603 451 q 549 273 583 392 q 469 22 515 154 q 450 -33 460 -6 q 429 -87 440 -61 q 367 -233 399 -164 q 301 -351 335 -301 q 286 -374 294 -362 q 269 -394 278 -385 l 167 -306 q 210 -240 188 -281 q 256 -147 232 -199 q 278 -94 267 -121 q 300 -37 289 -67 q 319 8 310 -15 q 335 56 328 32 q 261 17 300 31 q 178 4 222 4 q 44 61 79 4 q 8 199 8 118 q 10 244 8 221 q 17 290 13 268 q 31 364 22 328 q 47 433 39 400 q 63 483 56 460 q 75 525 69 507 q 83 550 78 531 q 96 594 89 569 q 99 603 97 599 q 101 614 100 608 q 113 663 108 640 q 118 697 118 686 q 118 701 118 700 q 117 703 118 701 q 86 706 111 706 q 21 703 61 706 l 14 840 q 122 841 75 844 q 203 810 168 838 q 241 757 231 788 q 251 690 251 726 q 250 659 251 675 q 246 628 249 643 q 235 583 242 606 q 224 539 229 560 q 215 512 219 525 q 207 486 211 499 q 196 449 204 478 q 176 381 188 419 q 169 349 172 365 q 161 315 165 332 q 150 256 154 285 q 146 203 146 226 q 153 159 146 176 q 178 142 160 142 q 335 243 263 142 q 467 481 407 344 q 478 514 474 496 q 489 553 483 532 q 497 584 493 568 q 504 617 500 600 q 508 626 507 621 q 511 638 510 632 q 540 731 525 685 q 572 825 556 778 l 788 825 l 788 825 z "},"Z":{"ha":829,"x_min":0,"x_max":903,"o":"m 861 563 q 746 408 810 481 q 615 267 682 336 q 613 264 614 265 q 610 261 611 263 q 565 213 588 238 q 521 165 543 189 q 530 140 525 153 q 540 117 535 128 q 682 150 619 138 q 771 167 744 163 l 792 31 q 707 16 767 26 q 572 -10 647 6 q 573 -16 572 -12 q 574 -24 574 -19 q 574 -30 574 -26 q 574 -36 574 -33 q 476 -243 572 -157 q 265 -350 381 -329 q 232 -356 249 -354 q 199 -357 215 -357 q 192 -357 196 -357 q 185 -357 189 -357 q 65 -317 121 -353 q 0 -214 10 -281 q 0 -206 0 -210 q 0 -199 0 -201 q 126 -39 0 -108 q 403 78 251 31 q 405 78 404 78 q 407 79 406 79 q 396 108 401 93 q 385 136 390 122 q 374 165 379 150 q 363 193 368 179 q 419 256 390 225 q 476 317 447 286 q 488 328 482 322 q 500 342 494 335 q 631 484 567 411 q 744 636 694 557 q 755 657 751 647 q 758 676 758 667 q 749 702 758 690 q 721 719 740 714 q 693 726 707 724 q 664 728 679 728 q 583 716 625 728 q 497 686 540 704 q 410 644 453 668 q 328 596 367 621 q 245 540 282 567 q 183 494 208 514 l 99 603 q 150 641 122 621 q 210 682 178 661 q 358 768 278 726 q 522 833 439 810 q 601 851 563 844 q 678 857 640 857 q 764 847 722 857 q 843 815 806 838 q 889 765 875 796 q 903 697 903 733 q 902 682 903 690 q 900 667 901 674 q 885 610 896 638 q 861 563 875 583 l 861 563 m 432 -44 q 376 -59 418 -47 q 286 -89 333 -71 q 199 -126 240 -106 q 143 -167 158 -146 q 137 -176 139 -171 q 135 -186 135 -181 q 135 -189 135 -187 q 136 -192 135 -190 q 137 -193 136 -192 q 138 -196 138 -194 q 151 -209 142 -204 q 172 -215 161 -214 q 186 -217 179 -217 q 199 -218 193 -218 q 231 -216 214 -218 q 264 -208 247 -214 q 376 -149 325 -192 q 432 -43 426 -106 l 432 -44 z "},"[":{"ha":694,"x_min":0,"x_max":0,"o":""},"\\":{"ha":694,"x_min":0,"x_max":0,"o":""},"]":{"ha":694,"x_min":0,"x_max":0,"o":""},"^":{"ha":694,"x_min":0,"x_max":0,"o":""},"_":{"ha":694,"x_min":0,"x_max":0,"o":""},"`":{"ha":474,"x_min":65,"x_max":404,"o":"m 404 782 l 369 681 l 65 783 l 100 885 l 404 782 l 404 782 z "},"a":{"ha":510,"x_min":3,"x_max":540,"o":"m 540 140 l 496 3 l 361 3 q 321 10 339 3 q 288 28 303 17 q 242 7 267 15 q 194 -4 218 -1 q 178 -6 186 -6 q 161 -7 169 -7 q 80 13 118 -7 q 19 75 42 32 q 7 110 11 93 q 3 146 3 128 q 17 216 3 182 q 53 279 31 250 q 226 410 122 372 q 440 451 329 449 q 449 451 444 451 q 460 451 454 451 l 460 314 q 372 308 415 314 q 288 288 328 303 q 219 253 251 275 q 164 199 188 231 q 160 192 163 196 q 154 182 157 188 q 149 174 151 178 q 144 164 147 169 q 142 154 143 160 q 140 144 140 149 q 144 134 140 139 q 158 129 149 129 q 239 165 213 129 q 281 244 265 201 q 286 263 283 254 q 292 279 289 271 l 422 236 l 392 140 l 540 140 l 540 140 z "},"b":{"ha":471,"x_min":4,"x_max":565,"o":"m 565 400 l 521 261 l 440 261 q 436 233 439 247 q 429 206 433 219 q 332 65 404 129 q 174 1 260 1 q 146 4 160 1 q 117 11 132 7 q 32 76 60 31 q 6 176 4 122 q 6 194 6 185 q 8 213 7 203 q 12 231 10 222 q 17 249 14 240 l 214 857 l 358 857 l 147 206 q 145 198 146 201 q 143 190 144 194 q 142 182 143 186 q 142 174 142 178 q 149 150 142 160 q 172 140 156 140 q 239 167 207 140 q 288 225 271 193 q 294 237 292 231 q 299 249 297 243 q 302 262 301 256 q 303 274 303 268 q 300 295 303 285 q 293 315 297 306 q 291 320 292 318 q 289 325 290 322 q 279 351 283 338 q 275 381 275 364 q 276 397 275 389 q 281 415 278 406 l 292 453 l 422 411 l 419 400 l 565 400 l 565 400 z "},"c":{"ha":475,"x_min":7,"x_max":500,"o":"m 500 140 l 454 3 l 146 3 q 74 20 107 3 q 22 72 40 38 q 10 106 14 89 q 7 142 7 124 q 17 210 7 176 q 42 272 28 243 q 42 274 42 274 q 43 276 43 275 q 156 408 81 349 q 317 468 232 468 q 322 468 319 468 q 326 468 324 468 q 331 467 328 467 q 336 467 333 467 q 422 428 389 461 q 456 343 456 394 q 456 339 456 342 q 456 335 456 336 q 455 330 456 332 q 454 325 454 328 l 447 264 l 308 264 l 315 331 q 239 299 275 328 q 181 235 203 269 q 173 222 176 228 q 167 211 169 217 q 163 202 167 210 q 156 183 160 194 q 153 180 154 182 q 151 176 153 178 q 146 158 149 167 q 143 144 143 149 q 144 142 143 143 q 146 140 144 140 l 500 140 l 500 140 z "},"d":{"ha":533,"x_min":1,"x_max":635,"o":"m 635 857 l 424 206 q 420 192 422 200 q 418 175 418 183 q 419 165 418 169 q 424 154 421 160 q 435 146 428 149 q 449 142 442 143 q 454 140 451 140 q 460 140 457 140 l 550 140 l 506 3 l 460 3 q 385 17 421 3 q 322 63 349 32 q 257 22 292 38 q 188 4 222 7 q 177 3 182 3 q 167 3 172 3 q 41 53 81 3 q 1 169 1 103 q 2 188 1 179 q 4 206 3 197 q 13 242 7 224 q 25 278 18 261 q 120 398 56 346 q 274 450 185 450 l 358 450 l 490 857 l 635 857 l 635 857 m 314 314 l 274 314 q 187 275 225 314 q 139 190 149 236 q 138 185 139 188 q 138 179 138 182 q 141 151 136 161 q 167 140 146 140 q 172 140 169 140 q 176 140 174 140 q 242 172 211 144 q 285 231 272 199 q 287 236 286 233 q 289 242 288 239 l 314 314 l 314 314 z "},"e":{"ha":475,"x_min":3,"x_max":489,"o":"m 489 140 l 443 3 l 140 3 q 70 19 103 3 q 19 68 38 35 q 7 101 11 83 q 3 138 3 119 q 3 147 3 142 q 4 157 4 151 q 16 213 7 185 q 35 265 25 242 q 106 376 64 332 q 194 442 149 419 q 233 459 214 453 q 269 468 251 465 q 286 470 278 469 q 304 471 294 471 q 406 439 361 471 q 450 350 450 407 q 448 327 450 339 q 440 301 446 315 q 394 226 429 267 q 297 140 360 185 l 489 140 l 489 140 m 307 336 q 219 297 257 333 q 164 218 182 261 q 163 216 164 217 q 163 214 163 215 q 260 283 226 251 q 307 336 294 314 l 307 336 z "},"f":{"ha":524,"x_min":-18,"x_max":542,"o":"m 542 453 l 497 314 l 417 314 q 471 195 453 260 q 488 61 489 131 q 488 44 488 53 q 486 28 488 36 q 417 -212 479 -97 q 247 -383 354 -326 q 201 -403 225 -396 q 151 -414 176 -411 q 141 -415 146 -415 q 131 -415 136 -415 q 67 -402 97 -415 q 14 -358 38 -389 l 14 -361 q -9 -309 0 -337 q -18 -244 -18 -281 q -12 -187 -18 -218 q 3 -122 -7 -157 l 144 314 l 24 314 l 79 453 l 189 453 l 319 857 l 465 857 l 335 453 l 542 453 l 542 453 m 300 239 q 288 255 294 247 q 275 268 282 263 q 205 52 240 160 q 135 -164 169 -56 q 133 -169 133 -167 q 132 -174 132 -171 q 128 -185 129 -179 q 125 -197 126 -192 q 119 -222 121 -210 q 117 -246 117 -235 q 122 -268 117 -260 q 142 -276 128 -276 q 159 -273 149 -276 q 183 -262 169 -269 q 298 -140 254 -224 q 349 33 342 -57 q 350 48 350 40 q 350 64 350 56 q 338 158 350 113 q 300 239 326 203 l 300 239 z "},"g":{"ha":493,"x_min":-11,"x_max":503,"o":"m 503 314 q 440 313 474 314 q 374 307 407 311 q 251 273 310 299 q 160 193 192 247 q 157 188 158 190 q 154 183 156 186 q 147 169 150 176 q 146 157 144 163 q 151 145 146 150 q 171 140 157 140 q 199 144 185 140 q 228 153 213 147 q 307 205 269 169 q 356 279 344 240 q 356 281 356 281 q 357 283 357 282 l 358 288 l 490 249 l 374 -111 q 224 -311 335 -226 q -10 -396 114 -396 l -11 -261 q -2 -260 -6 -260 q 6 -258 1 -260 q 151 -195 82 -253 q 243 -67 219 -137 l 272 24 q 247 15 260 18 q 222 8 235 11 q 196 4 208 6 q 171 3 183 3 q 88 22 128 3 q 26 81 49 42 q 13 117 17 99 q 8 153 8 135 q 17 208 8 181 q 40 261 26 236 q 194 397 97 358 q 396 446 290 436 q 449 449 422 449 q 503 450 476 450 l 503 314 l 503 314 z "},"h":{"ha":544,"x_min":0,"x_max":564,"o":"m 564 140 l 519 3 l 421 3 q 338 37 369 3 q 306 117 306 71 q 306 127 306 122 q 307 138 307 132 q 310 147 308 142 q 313 157 311 151 q 322 185 317 171 q 332 215 328 200 q 337 226 335 221 q 340 236 339 232 q 352 274 347 256 q 360 308 357 292 q 280 253 318 292 q 214 169 242 214 q 192 133 201 151 q 175 97 182 114 l 144 3 l 0 3 l 278 857 l 422 857 l 282 424 q 317 440 299 433 q 353 450 335 446 q 365 451 358 450 q 376 451 371 451 q 399 449 388 451 q 421 443 411 447 q 479 394 461 429 q 497 319 497 360 q 492 274 497 299 q 476 221 488 249 q 470 201 474 211 q 464 181 467 190 q 458 160 461 171 q 451 140 454 150 l 564 140 l 564 140 z "},"i":{"ha":275,"x_min":4,"x_max":324,"o":"m 289 140 l 244 3 l 119 3 q 36 37 68 3 q 4 117 4 71 q 5 127 4 122 q 6 138 6 132 q 8 147 7 142 q 11 157 10 151 l 106 453 l 251 453 l 151 140 l 289 140 l 289 140 m 324 663 q 297 595 324 624 q 229 567 269 567 q 163 595 190 567 q 135 663 135 624 q 163 729 135 701 q 229 757 190 757 q 297 729 269 757 q 324 663 324 701 l 324 663 z "},"j":{"ha":510,"x_min":0,"x_max":597,"o":"m 547 453 l 383 -50 q 237 -249 346 -165 q 6 -336 128 -333 q 3 -336 4 -336 q 0 -336 1 -336 l 0 -201 q 10 -200 6 -200 q 21 -199 15 -200 q 163 -133 96 -190 q 253 -7 229 -76 l 319 201 q 285 188 303 194 q 250 176 268 182 l 215 310 q 230 313 222 311 q 244 318 238 315 q 335 371 292 336 q 400 453 378 406 l 547 453 l 547 453 m 597 663 q 570 595 597 624 q 503 567 543 567 q 436 595 464 567 q 408 663 408 624 q 436 729 408 701 q 503 757 464 757 q 570 729 543 757 q 597 663 597 701 l 597 663 z "},"k":{"ha":492,"x_min":-1,"x_max":522,"o":"m 522 372 l 319 222 l 354 143 q 362 141 357 142 q 372 140 367 140 l 475 140 l 429 3 l 372 3 q 369 3 371 3 q 365 3 367 3 q 288 22 325 4 q 232 82 250 40 l 196 164 l 143 3 l -1 3 l 275 857 l 419 857 l 254 344 l 440 483 l 522 372 l 522 372 z "},"l":{"ha":288,"x_min":18,"x_max":397,"o":"m 397 857 l 164 140 l 301 140 l 257 3 l 133 3 q 50 37 82 3 q 18 117 18 71 q 19 127 18 122 q 19 138 19 132 q 22 147 21 142 q 25 157 24 151 l 253 857 l 397 857 l 397 857 z "},"m":{"ha":828,"x_min":4,"x_max":824,"o":"m 824 140 l 779 3 l 685 3 q 601 36 633 3 q 569 117 569 69 q 572 137 569 126 q 576 157 574 147 q 593 212 585 185 q 611 265 601 239 q 614 273 613 269 q 615 279 615 276 q 621 294 618 286 q 624 308 624 301 q 597 294 611 304 q 567 271 582 285 q 493 192 528 238 q 439 97 458 146 q 424 51 431 75 q 410 3 417 26 l 264 3 q 274 37 269 19 q 285 72 279 54 q 297 108 290 90 q 310 142 303 125 q 319 172 314 157 q 329 204 324 188 q 340 235 335 219 q 350 265 344 250 q 352 271 351 268 q 353 276 353 274 q 358 292 356 283 q 361 308 360 300 q 335 294 350 304 q 304 271 319 285 q 230 192 265 236 q 178 97 194 147 l 147 3 l 4 3 l 149 453 l 294 453 l 283 422 q 319 438 300 432 q 357 449 338 444 q 369 449 363 449 q 382 450 376 450 q 440 436 414 450 q 485 389 467 422 q 485 388 485 389 q 486 386 485 388 q 487 384 486 385 q 488 383 488 383 q 563 432 524 413 q 640 451 601 451 q 663 449 651 451 q 686 443 675 447 q 744 394 728 426 q 760 322 760 361 q 755 271 760 296 q 742 222 750 246 q 734 202 738 213 q 728 182 731 192 q 722 161 725 171 q 715 140 718 151 l 824 140 l 824 140 z "},"n":{"ha":561,"x_min":0,"x_max":564,"o":"m 564 140 l 518 3 l 422 3 q 339 36 371 3 q 307 117 307 69 q 309 137 307 126 q 314 157 311 147 q 319 176 317 167 q 325 193 322 185 q 336 229 331 211 q 347 265 342 247 q 349 271 349 268 q 350 276 350 274 q 355 292 353 283 q 358 308 357 300 q 332 294 347 304 q 301 271 317 285 q 228 192 263 238 q 175 97 194 146 l 144 3 l 0 3 l 146 453 l 290 453 l 281 424 q 312 438 296 432 q 344 447 328 444 q 360 451 353 450 q 376 451 368 451 q 399 449 388 451 q 421 443 411 447 q 479 394 461 429 q 497 319 497 360 q 492 274 497 299 q 478 222 488 250 q 471 202 474 213 q 465 182 468 192 q 463 174 464 178 q 461 168 461 171 q 457 154 458 161 q 453 140 456 147 l 564 140 l 564 140 z "},"o":{"ha":488,"x_min":4,"x_max":556,"o":"m 556 344 l 510 203 l 443 203 q 358 63 425 122 q 204 3 290 3 q 197 3 200 3 q 189 4 193 3 q 181 5 185 4 q 174 6 178 6 q 51 74 97 17 q 4 208 4 132 q 76 384 4 307 q 250 461 149 461 q 359 429 311 461 q 431 344 407 397 l 556 344 l 556 344 m 294 206 q 233 240 258 213 q 203 307 207 268 q 165 270 181 293 q 146 222 150 247 q 146 219 146 221 q 146 215 146 217 q 144 212 144 214 q 144 208 144 210 q 160 164 146 183 q 204 144 175 144 q 256 163 232 144 q 294 206 281 181 l 294 206 z "},"p":{"ha":696,"x_min":-90,"x_max":710,"o":"m 710 140 l 665 3 l 253 3 l 253 140 l 343 140 q 363 142 353 140 q 382 147 372 144 q 458 198 424 163 q 492 274 492 233 q 478 305 492 296 q 444 314 464 314 q 382 292 417 314 q 311 233 347 271 q 304 224 308 229 q 296 215 300 219 q 218 106 256 168 q 157 -26 181 44 l 40 -389 l -90 -346 l 65 135 q 90 236 83 192 q 97 315 97 281 q 94 363 97 342 q 88 401 92 385 q 85 413 86 407 q 83 422 85 418 q 81 431 82 429 q 79 435 81 433 l 214 464 q 217 455 217 457 q 217 453 217 453 q 219 439 218 446 q 222 424 221 432 q 229 390 226 408 q 233 349 232 371 q 333 422 278 392 q 447 451 388 451 q 478 449 463 451 q 508 442 493 447 q 597 378 564 424 q 629 274 629 332 q 617 205 629 239 q 586 140 606 171 l 710 140 l 710 140 z "},"q":{"ha":601,"x_min":10,"x_max":618,"o":"m 618 143 l 572 6 l 525 6 q 527 -12 526 -3 q 528 -31 528 -21 q 525 -72 528 -51 q 518 -111 522 -92 q 513 -131 515 -121 q 507 -151 510 -142 q 489 -199 500 -174 q 464 -251 478 -225 q 378 -364 429 -312 q 263 -415 326 -415 q 242 -413 253 -415 q 221 -408 232 -411 q 154 -357 175 -394 q 133 -276 133 -319 q 136 -248 133 -262 q 143 -218 139 -233 l 218 13 q 194 8 207 10 q 167 6 181 6 q 86 22 124 6 q 28 78 49 39 q 14 112 18 94 q 10 147 10 129 q 19 205 10 176 q 40 260 28 233 q 167 390 82 346 q 344 449 251 435 q 410 454 378 453 q 474 453 443 456 l 464 315 q 359 312 410 319 q 267 288 308 304 q 187 233 224 269 q 147 146 150 196 q 156 144 150 144 q 167 144 161 144 q 247 178 215 144 q 297 254 278 213 l 306 278 l 436 236 l 406 143 l 618 143 l 618 143 m 390 -25 q 390 -7 390 -14 q 388 6 389 0 l 361 6 q 340 -60 350 -28 q 318 -126 329 -93 q 297 -192 307 -160 q 275 -260 286 -225 q 274 -265 274 -262 q 274 -269 274 -268 q 278 -271 274 -275 q 290 -258 283 -267 q 292 -257 292 -258 q 293 -256 293 -256 q 302 -245 299 -250 q 307 -239 306 -240 q 358 -155 336 -201 q 388 -60 381 -108 q 390 -42 389 -51 q 390 -24 390 -33 l 390 -25 z "},"r":{"ha":479,"x_min":3,"x_max":478,"o":"m 478 314 l 425 314 q 400 292 417 308 q 365 254 383 275 q 354 242 360 249 q 343 229 349 235 q 313 185 325 206 q 300 153 300 165 q 305 144 301 147 q 317 140 308 140 l 472 140 l 428 3 q 403 3 418 3 q 372 3 389 3 q 341 3 356 3 q 317 3 326 3 q 237 22 274 3 q 179 81 200 42 q 172 97 175 89 q 168 115 169 106 q 165 132 165 124 q 164 149 164 140 q 183 235 164 193 q 229 314 203 278 l 207 314 q 199 313 203 314 q 192 311 196 313 q 165 295 178 307 q 147 271 153 283 q 145 267 146 269 q 144 264 144 265 l 133 232 l 3 275 l 79 514 l 211 471 l 204 453 l 478 453 l 478 314 l 478 314 z "},"s":{"ha":358,"x_min":0,"x_max":349,"o":"m 349 213 q 292 61 349 119 q 140 3 235 3 l 0 3 l 44 140 l 140 140 q 194 158 176 140 q 211 213 211 175 q 207 249 211 232 q 196 281 203 267 q 151 219 169 244 q 132 192 132 193 l 21 272 q 51 314 21 272 q 118 406 81 356 q 183 497 153 456 q 214 540 214 539 l 338 479 q 321 456 336 478 q 282 401 306 433 q 331 313 314 363 q 349 213 349 264 l 349 213 z "},"t":{"ha":326,"x_min":-4,"x_max":336,"o":"m 336 451 l 292 314 l 218 314 l 161 140 l 326 140 l 282 3 l 126 3 q 45 36 76 3 q 14 114 14 69 q 15 123 14 118 q 15 133 15 128 q 18 144 17 139 q 21 153 19 149 l 74 314 l -4 314 l 42 451 l 118 451 l 171 614 l 301 571 l 263 451 l 336 451 l 336 451 z "},"u":{"ha":469,"x_min":6,"x_max":483,"o":"m 483 140 l 438 3 q 417 3 428 3 q 396 3 407 3 q 337 14 365 3 q 286 44 308 25 q 226 14 258 25 q 160 3 193 3 q 147 3 153 3 q 133 6 140 4 q 120 8 126 6 q 107 11 114 10 q 31 68 57 28 q 7 156 6 108 q 8 169 7 163 q 10 183 8 176 q 12 197 10 190 q 15 211 14 204 l 93 453 l 238 453 l 146 168 q 144 160 144 164 q 143 153 143 156 q 147 144 143 147 q 160 140 150 140 q 168 141 164 140 q 176 143 172 142 q 221 167 200 149 q 249 207 242 186 q 249 209 249 208 q 250 211 250 210 l 329 453 l 472 453 l 382 168 q 380 160 381 164 q 379 153 379 156 q 383 144 379 147 q 396 140 386 140 l 483 140 l 483 140 z "},"v":{"ha":443,"x_min":6,"x_max":529,"o":"m 529 383 l 485 246 l 369 246 q 349 213 360 229 q 325 179 338 196 q 235 82 283 124 q 132 3 188 40 l 94 3 q 78 27 86 15 q 63 50 69 39 q 21 139 36 93 q 6 246 6 185 q 11 322 6 283 q 28 400 17 361 q 36 427 32 414 q 44 453 40 440 l 192 453 q 167 387 178 422 q 150 315 156 351 q 144 280 146 297 q 143 244 143 263 q 144 216 143 231 q 149 188 146 201 q 197 238 175 211 q 238 293 219 264 q 226 319 231 306 q 222 347 222 333 q 224 364 222 356 q 228 381 225 372 q 270 440 239 415 q 338 472 301 464 q 352 474 344 474 q 367 475 360 475 l 461 475 q 447 430 454 453 q 432 383 439 407 l 529 383 l 529 383 z "},"w":{"ha":660,"x_min":4,"x_max":751,"o":"m 751 383 l 706 246 l 589 246 q 483 110 542 167 q 350 3 424 53 l 311 3 q 306 9 308 6 q 301 15 304 13 q 274 57 288 36 q 250 101 260 78 q 194 50 224 74 q 133 3 165 26 l 93 3 q 87 12 90 7 q 81 21 83 17 q 73 30 76 25 q 67 39 69 35 q 18 139 32 85 q 4 249 4 193 q 4 266 4 257 q 6 283 4 275 q 18 369 8 326 q 43 453 28 413 l 186 453 q 174 415 181 435 q 164 376 168 396 q 148 304 154 339 q 142 246 142 269 q 142 227 142 236 q 144 210 143 218 q 145 201 144 206 q 147 192 146 196 q 189 241 169 215 q 225 293 208 267 q 239 374 229 333 q 263 453 249 414 l 410 453 q 390 397 399 426 q 374 339 381 368 q 365 288 368 313 q 363 239 363 263 q 365 212 363 225 q 368 188 367 199 q 415 238 393 211 q 456 293 438 264 q 449 306 451 300 q 444 319 446 313 q 441 333 442 326 q 440 346 440 340 q 458 404 440 378 q 503 449 476 431 q 574 474 538 471 q 650 475 611 476 q 665 475 657 475 q 679 475 672 475 q 665 430 672 453 q 650 383 657 407 l 751 383 l 751 383 z "},"x":{"ha":515,"x_min":0,"x_max":568,"o":"m 568 453 l 333 179 q 336 172 335 175 q 339 164 338 168 q 342 156 340 160 q 344 149 343 153 q 351 142 347 143 q 360 140 354 140 l 513 140 l 468 3 q 444 3 458 3 q 414 3 429 3 q 384 3 399 3 q 360 3 369 3 q 288 19 321 3 q 233 65 256 35 l 181 3 l 0 3 l 176 207 l 85 453 l 231 453 q 255 390 243 421 q 278 326 267 358 l 386 453 l 568 453 l 568 453 z "},"y":{"ha":451,"x_min":1,"x_max":513,"o":"m 513 453 q 500 424 507 439 q 486 396 493 410 q 453 324 472 364 q 413 243 435 283 q 400 219 407 231 q 386 196 393 207 q 385 120 386 158 q 379 43 383 82 q 288 -241 361 -108 q 51 -415 214 -374 l 18 -283 q 174 -165 125 -256 q 239 29 224 -74 q 197 10 218 17 q 151 4 175 4 q 42 49 83 4 q 1 156 1 94 q 4 184 1 169 q 11 213 7 199 q 51 333 31 272 q 89 453 71 393 l 233 453 q 188 311 211 382 q 142 169 165 240 q 141 167 142 168 q 140 164 140 165 q 140 158 140 161 q 139 153 139 156 q 142 144 139 147 q 151 142 144 142 q 186 156 168 142 q 224 193 204 169 q 265 256 244 221 q 303 329 285 292 q 335 394 319 363 q 361 451 350 425 q 361 451 361 451 q 361 453 361 451 l 513 453 l 513 453 z "},"z":{"ha":397,"x_min":-4,"x_max":394,"o":"m 388 310 q 367 231 388 268 q 324 158 347 193 q 312 142 318 150 q 300 125 306 133 q 373 78 351 110 q 394 6 394 47 q 384 -59 394 -24 q 356 -133 374 -94 q 333 -175 346 -154 q 307 -217 321 -196 q 272 -267 290 -242 q 235 -317 254 -293 q 226 -328 231 -322 q 217 -340 221 -335 l 38 -342 q 73 -298 54 -321 q 111 -250 92 -275 q 136 -218 124 -235 q 161 -185 149 -201 q 200 -128 182 -157 q 231 -74 218 -100 q 239 -52 236 -62 q 242 -33 242 -42 q 228 -7 242 -17 q 182 3 215 3 l 53 3 l 125 110 q 162 165 143 138 q 200 221 181 193 q 219 248 210 235 q 238 275 228 261 q 240 280 238 276 q 244 288 242 283 q 246 291 244 289 q 247 294 247 293 q 250 302 249 299 q 251 308 251 306 q 250 313 251 311 q 246 314 249 314 l -4 314 l 40 453 q 69 453 54 453 q 100 453 85 453 q 182 453 143 453 q 246 453 221 453 q 347 411 306 453 q 388 310 388 369 l 388 310 z "},"{":{"ha":694,"x_min":0,"x_max":0,"o":""},"|":{"ha":694,"x_min":0,"x_max":0,"o":""},"}":{"ha":694,"x_min":0,"x_max":0,"o":""},"~":{"ha":694,"x_min":0,"x_max":0,"o":""},"":{"ha":790,"x_min":-4,"x_max":847,"o":"m 838 681 q 844 644 842 664 q 846 604 846 625 q 832 482 846 551 q 790 325 818 413 l 685 4 l 540 4 l 606 203 l 294 203 q 295 153 293 178 q 300 101 297 128 q 308 61 303 82 q 317 21 313 40 q 331 -26 324 -3 q 344 -74 338 -50 q 348 -87 346 -81 q 351 -99 350 -93 l 219 -139 q 190 -31 204 -86 q 165 79 175 24 q 160 110 163 94 q 157 142 158 125 q 155 172 156 157 q 154 203 154 188 l -4 203 l 40 342 l 175 342 q 247 522 201 439 q 349 667 293 604 q 438 748 392 714 q 533 801 485 782 q 589 819 561 813 q 643 825 617 825 q 770 792 721 825 q 838 681 819 758 l 838 681 m 706 649 q 684 678 700 669 q 643 688 668 688 q 583 674 615 688 q 517 635 550 660 q 484 607 500 622 q 451 574 468 592 q 370 464 404 522 q 317 342 336 406 l 650 342 l 658 367 q 698 508 686 449 q 710 608 710 567 q 709 630 710 619 q 706 649 708 640 l 706 649 m 654 972 l 575 844 l 485 901 l 564 1028 l 654 972 l 654 972 m 847 972 l 769 844 l 678 901 l 756 1028 l 847 972 l 847 972 z "},"":{"ha":790,"x_min":-4,"x_max":846,"o":"m 838 681 q 844 644 842 664 q 846 604 846 625 q 832 482 846 551 q 790 325 818 413 l 685 4 l 540 4 l 606 203 l 294 203 q 295 153 293 178 q 300 101 297 128 q 308 61 303 82 q 317 21 313 40 q 331 -26 324 -3 q 344 -74 338 -50 q 348 -87 346 -81 q 351 -99 350 -93 l 219 -139 q 190 -31 204 -86 q 165 79 175 24 q 160 110 163 94 q 157 142 158 125 q 155 172 156 157 q 154 203 154 188 l -4 203 l 40 342 l 175 342 q 247 522 201 439 q 349 667 293 604 q 438 748 392 714 q 533 801 485 782 q 589 819 561 813 q 643 825 617 825 q 770 792 721 825 q 838 681 819 758 l 838 681 m 706 649 q 684 678 700 669 q 643 688 668 688 q 583 674 615 688 q 517 635 550 660 q 484 607 500 622 q 451 574 468 592 q 370 464 404 522 q 317 342 336 406 l 650 342 l 658 367 q 698 508 686 449 q 710 608 710 567 q 709 630 710 619 q 706 649 708 640 l 706 649 m 767 942 q 759 905 767 922 q 738 874 751 888 q 707 853 725 860 q 669 846 689 846 q 601 874 631 846 q 572 942 572 903 q 580 980 572 963 q 600 1010 588 997 l 600 1011 q 633 1032 615 1025 q 669 1039 650 1039 q 738 1010 710 1039 q 767 942 767 982 l 767 942 m 694 942 q 688 960 694 953 q 669 968 681 968 q 659 966 664 968 q 651 961 654 964 q 646 953 647 958 q 644 942 644 949 q 652 924 644 932 q 669 917 660 917 q 680 919 675 917 q 688 924 685 921 q 692 931 690 926 q 694 942 694 936 l 694 942 z "},"":{"ha":632,"x_min":1,"x_max":765,"o":"m 399 -186 q 350 -242 382 -221 q 282 -262 318 -262 q 250 -262 271 -262 q 206 -262 229 -262 q 191 -262 199 -262 q 178 -262 183 -262 q 151 -262 163 -262 q 131 -262 139 -262 l 172 -161 l 264 -161 q 297 -152 288 -160 q 304 -135 306 -144 q 303 -130 304 -132 q 303 -125 303 -128 q 294 -111 300 -118 q 282 -100 289 -104 q 245 -78 264 -89 q 208 -56 226 -67 q 249 13 228 -21 q 290 81 269 46 l 381 25 l 354 -22 q 395 -71 381 -42 q 410 -132 410 -100 q 407 -159 410 -146 q 399 -185 404 -172 l 399 -186 m 710 824 q 753 774 740 801 q 765 714 765 746 q 764 693 765 704 q 760 672 763 682 q 738 609 753 640 q 706 551 722 578 q 657 485 685 519 q 597 418 629 451 q 497 320 551 368 q 388 229 443 272 q 384 226 386 228 q 379 222 382 224 l 296 331 q 385 404 342 365 q 468 482 429 443 q 536 556 506 519 q 589 625 567 592 q 597 637 592 628 q 608 658 603 646 q 611 664 610 661 q 614 669 613 667 q 625 694 621 682 q 629 711 629 706 q 629 712 629 711 q 629 713 629 713 q 628 714 628 714 q 628 714 628 714 q 610 723 619 721 q 590 725 601 725 q 562 722 576 725 q 533 713 547 718 q 503 699 518 706 q 475 683 489 692 q 447 665 460 674 q 426 651 435 657 q 385 620 407 638 q 343 582 364 603 q 231 456 283 526 q 154 310 178 385 q 144 268 147 289 q 140 226 140 247 q 155 166 140 190 q 208 142 169 142 q 297 142 247 142 q 399 142 347 142 q 500 142 450 142 q 589 142 550 142 l 544 4 q 467 4 511 4 q 378 4 424 4 q 286 4 331 4 q 208 4 242 4 q 56 69 111 4 q 1 226 1 133 q 2 243 1 235 q 3 260 3 251 q 101 509 15 388 q 288 715 186 631 q 317 740 303 728 q 347 763 332 751 q 355 768 351 765 q 363 772 358 771 q 448 822 401 799 q 543 854 494 846 q 569 858 556 857 q 596 860 583 860 q 655 851 626 860 q 710 824 683 843 l 710 824 z "},"":{"ha":763,"x_min":0,"x_max":908,"o":"m 810 750 q 816 726 814 738 q 818 703 818 714 q 772 588 818 642 q 669 492 725 535 q 613 450 640 469 q 564 415 585 431 l 479 525 q 513 549 483 528 q 578 597 543 569 q 591 608 585 603 q 604 618 597 613 q 656 665 635 643 q 678 700 678 688 q 677 705 678 703 q 674 708 676 707 q 649 718 663 715 q 621 721 636 721 q 599 719 610 721 q 575 715 588 718 q 533 704 554 711 q 496 690 513 697 q 482 684 489 688 q 469 678 475 681 q 443 662 461 674 q 406 636 425 650 q 378 613 392 625 q 356 589 365 601 q 342 567 347 578 q 336 546 336 556 q 337 538 336 542 q 339 532 338 535 l 338 535 l 440 354 q 392 319 417 336 q 344 283 368 301 q 250 213 297 249 q 156 142 203 178 l 735 142 l 690 4 q 423 4 557 4 q 154 4 289 4 q 40 40 81 4 q 0 125 0 76 q 2 144 0 135 q 7 164 4 154 q 32 210 15 188 q 75 253 49 233 q 122 287 99 269 q 168 322 144 304 q 215 358 192 340 q 261 392 238 375 q 257 399 260 396 q 253 406 254 403 q 249 411 251 408 q 246 417 247 414 q 213 476 228 446 q 197 543 199 507 q 295 727 197 644 q 511 840 393 810 q 567 852 539 849 q 621 856 594 856 q 690 848 657 856 q 749 824 722 840 q 786 792 771 810 q 810 750 801 774 l 810 750 m 908 981 l 604 878 l 569 979 l 874 1082 l 908 981 l 908 981 z "},"":{"ha":882,"x_min":6,"x_max":1038,"o":"m 1038 825 q 1003 744 1022 788 q 965 657 985 701 q 957 638 961 647 q 949 619 953 628 q 906 526 926 571 q 867 446 885 482 q 763 263 818 353 q 644 93 707 172 q 636 83 640 88 q 628 72 632 78 q 574 25 604 47 q 510 3 544 3 q 499 3 504 3 q 486 6 493 4 q 431 49 446 17 q 414 118 415 82 q 413 133 413 125 q 414 147 414 140 q 427 286 419 213 q 444 438 435 360 q 411 376 428 407 q 376 317 394 346 q 276 153 326 232 q 176 4 226 74 l 6 4 q 58 76 31 38 q 114 157 86 115 q 142 199 128 178 q 169 242 156 221 q 215 315 193 279 q 257 386 238 351 q 335 525 296 454 q 411 667 374 596 q 453 747 432 707 q 493 825 474 786 l 633 825 q 626 767 631 799 q 618 703 622 735 q 617 696 618 700 q 617 689 617 692 q 607 619 611 653 q 599 558 603 585 q 591 499 594 529 q 583 439 588 469 q 569 320 576 379 q 557 204 563 261 q 656 351 608 274 q 743 508 703 428 q 821 672 785 590 q 886 825 857 753 l 1038 825 l 1038 825 m 1019 935 q 953 869 994 892 q 864 846 911 846 q 820 851 842 846 q 779 868 799 857 q 763 874 771 872 q 746 876 754 876 q 711 867 728 876 q 683 842 694 858 l 590 894 q 657 960 615 938 q 746 983 699 983 q 790 978 768 983 q 831 961 811 972 q 847 955 839 957 q 864 953 856 953 q 900 962 883 953 q 926 989 917 971 l 1019 935 l 1019 935 z "},"":{"ha":857,"x_min":4,"x_max":1010,"o":"m 1010 596 l 965 458 l 810 458 q 665 143 803 282 q 350 4 528 4 q 317 6 333 4 q 283 10 300 7 q 81 129 157 32 q 4 353 4 226 q 144 680 4 535 q 468 825 283 825 q 667 763 579 825 q 792 596 756 701 l 1010 596 l 1010 596 m 672 458 q 663 458 668 458 q 654 458 658 458 q 578 464 614 458 q 515 508 542 469 q 499 542 504 525 q 493 574 493 558 q 500 618 493 596 q 515 664 507 640 q 518 672 517 668 q 521 681 519 676 q 494 685 507 683 q 468 688 481 688 q 240 583 339 688 q 142 353 142 479 q 199 202 142 263 q 347 142 256 142 q 567 239 471 142 q 672 458 664 336 l 672 458 m 474 956 l 394 828 l 304 885 l 383 1011 l 474 956 l 474 956 m 667 956 l 589 828 l 497 885 l 575 1011 l 667 956 l 667 956 z "},"":{"ha":696,"x_min":7,"x_max":810,"o":"m 810 825 q 783 775 796 800 q 756 724 769 750 q 747 709 751 717 q 740 694 743 701 q 719 657 729 676 q 703 618 710 638 q 663 499 682 558 q 624 381 643 439 q 612 340 618 360 q 599 300 606 321 q 574 222 586 261 q 549 142 561 182 l 685 142 l 644 4 l 529 4 q 453 32 486 4 q 410 100 419 60 q 312 30 364 56 q 199 4 260 4 q 49 60 92 4 q 7 206 7 117 q 33 370 7 289 q 89 531 58 451 q 108 580 99 556 q 126 629 118 604 q 140 672 136 657 q 144 692 144 686 q 144 697 144 694 q 140 699 143 699 q 111 707 126 704 q 81 713 96 710 q 76 714 78 714 q 71 715 74 714 q 51 718 61 717 q 32 722 42 719 l 60 856 q 79 852 69 854 q 99 849 89 850 q 105 848 101 849 q 111 847 108 847 q 149 840 129 844 q 186 829 168 836 q 263 776 242 810 q 283 703 283 743 q 279 660 283 682 q 268 617 275 639 q 257 585 263 601 q 246 553 251 569 q 238 536 242 544 q 232 519 235 528 q 219 487 226 504 q 206 451 213 469 q 191 410 199 431 q 176 367 183 389 q 153 282 163 324 q 144 206 144 240 q 156 160 144 178 q 199 142 168 142 q 374 273 296 142 q 525 561 453 404 q 531 574 528 568 q 538 588 535 581 q 542 598 540 593 q 547 607 544 603 q 561 637 554 622 q 574 667 568 651 q 593 719 585 693 q 608 772 601 746 q 610 776 610 774 q 611 779 611 778 q 617 802 614 790 q 625 825 621 814 l 810 825 l 810 825 m 443 956 l 364 828 l 274 885 l 353 1011 l 443 956 l 443 956 m 636 956 l 558 828 l 467 885 l 544 1011 l 636 956 l 636 956 z "},"":{"ha":510,"x_min":3,"x_max":581,"o":"m 540 140 l 496 3 l 361 3 q 321 10 339 3 q 288 28 303 17 q 242 7 267 15 q 194 -4 218 -1 q 178 -6 186 -6 q 161 -7 169 -7 q 80 13 118 -7 q 19 75 42 32 q 7 110 11 93 q 3 146 3 128 q 17 216 3 182 q 53 279 31 250 q 226 410 122 372 q 440 451 329 449 q 449 451 444 451 q 460 451 454 451 l 460 314 q 372 308 415 314 q 288 288 328 303 q 219 253 251 275 q 164 199 188 231 q 160 192 163 196 q 154 182 157 188 q 149 174 151 178 q 144 164 147 169 q 142 154 143 160 q 140 144 140 149 q 144 134 140 139 q 158 129 149 129 q 239 165 213 129 q 281 244 265 201 q 286 263 283 254 q 292 279 289 271 l 422 236 l 392 140 l 540 140 l 540 140 m 581 578 l 276 475 l 242 576 l 546 679 l 581 578 l 581 578 z "},"":{"ha":510,"x_min":3,"x_max":540,"o":"m 540 140 l 496 3 l 361 3 q 321 10 339 3 q 288 28 303 17 q 242 7 267 15 q 194 -4 218 -1 q 178 -6 186 -6 q 161 -7 169 -7 q 80 13 118 -7 q 19 75 42 32 q 7 110 11 93 q 3 146 3 128 q 17 216 3 182 q 53 279 31 250 q 226 410 122 372 q 440 451 329 449 q 449 451 444 451 q 460 451 454 451 l 460 314 q 372 308 415 314 q 288 288 328 303 q 219 253 251 275 q 164 199 188 231 q 160 192 163 196 q 154 182 157 188 q 149 174 151 178 q 144 164 147 169 q 142 154 143 160 q 140 144 140 149 q 144 134 140 139 q 158 129 149 129 q 239 165 213 129 q 281 244 265 201 q 286 263 283 254 q 292 279 289 271 l 422 236 l 392 140 l 540 140 l 540 140 m 449 593 l 414 492 l 110 594 l 144 696 l 449 593 l 449 593 z "},"":{"ha":510,"x_min":3,"x_max":558,"o":"m 540 140 l 496 3 l 361 3 q 321 10 339 3 q 288 28 303 17 q 242 7 267 15 q 194 -4 218 -1 q 178 -6 186 -6 q 161 -7 169 -7 q 80 13 118 -7 q 19 75 42 32 q 7 110 11 93 q 3 146 3 128 q 17 216 3 182 q 53 279 31 250 q 226 410 122 372 q 440 451 329 449 q 449 451 444 451 q 460 451 454 451 l 460 314 q 372 308 415 314 q 288 288 328 303 q 219 253 251 275 q 164 199 188 231 q 160 192 163 196 q 154 182 157 188 q 149 174 151 178 q 144 164 147 169 q 142 154 143 160 q 140 144 140 149 q 144 134 140 139 q 158 129 149 129 q 239 165 213 129 q 281 244 265 201 q 286 263 283 254 q 292 279 289 271 l 422 236 l 392 140 l 540 140 l 540 140 m 558 556 l 506 463 l 347 551 l 188 463 l 135 556 l 347 674 l 558 556 l 558 556 z "},"":{"ha":510,"x_min":3,"x_max":540,"o":"m 540 140 l 496 3 l 361 3 q 321 10 339 3 q 288 28 303 17 q 242 7 267 15 q 194 -4 218 -1 q 178 -6 186 -6 q 161 -7 169 -7 q 80 13 118 -7 q 19 75 42 32 q 7 110 11 93 q 3 146 3 128 q 17 216 3 182 q 53 279 31 250 q 226 410 122 372 q 440 451 329 449 q 449 451 444 451 q 460 451 454 451 l 460 314 q 372 308 415 314 q 288 288 328 303 q 219 253 251 275 q 164 199 188 231 q 160 192 163 196 q 154 182 157 188 q 149 174 151 178 q 144 164 147 169 q 142 154 143 160 q 140 144 140 149 q 144 134 140 139 q 158 129 149 129 q 239 165 213 129 q 281 244 265 201 q 286 263 283 254 q 292 279 289 271 l 422 236 l 392 140 l 540 140 l 540 140 m 346 600 l 267 472 l 176 529 l 256 656 l 346 600 l 346 600 m 539 600 l 461 472 l 369 529 l 447 656 l 539 600 l 539 600 z "},"":{"ha":510,"x_min":3,"x_max":558,"o":"m 540 140 l 496 3 l 361 3 q 321 10 339 3 q 288 28 303 17 q 242 7 267 15 q 194 -4 218 -1 q 178 -6 186 -6 q 161 -7 169 -7 q 80 13 118 -7 q 19 75 42 32 q 7 110 11 93 q 3 146 3 128 q 17 216 3 182 q 53 279 31 250 q 226 410 122 372 q 440 451 329 449 q 449 451 444 451 q 460 451 454 451 l 460 314 q 372 308 415 314 q 288 288 328 303 q 219 253 251 275 q 164 199 188 231 q 160 192 163 196 q 154 182 157 188 q 149 174 151 178 q 144 164 147 169 q 142 154 143 160 q 140 144 140 149 q 144 134 140 139 q 158 129 149 129 q 239 165 213 129 q 281 244 265 201 q 286 263 283 254 q 292 279 289 271 l 422 236 l 392 140 l 540 140 l 540 140 m 558 568 q 492 502 533 525 q 403 479 450 479 q 359 485 381 479 q 318 501 338 490 q 301 508 310 506 q 285 510 293 510 q 250 501 267 510 q 222 475 233 492 l 129 528 q 196 594 154 571 q 285 617 238 617 q 328 611 307 617 q 369 594 350 606 q 386 588 378 590 q 403 586 394 586 q 439 595 422 586 q 465 622 456 604 l 558 568 l 558 568 z "},"":{"ha":510,"x_min":3,"x_max":540,"o":"m 540 140 l 496 3 l 361 3 q 321 10 339 3 q 288 28 303 17 q 242 7 267 15 q 194 -4 218 -1 q 178 -6 186 -6 q 161 -7 169 -7 q 80 13 118 -7 q 19 75 42 32 q 7 110 11 93 q 3 146 3 128 q 17 216 3 182 q 53 279 31 250 q 226 410 122 372 q 440 451 329 449 q 449 451 444 451 q 460 451 454 451 l 460 314 q 372 308 415 314 q 288 288 328 303 q 219 253 251 275 q 164 199 188 231 q 160 192 163 196 q 154 182 157 188 q 149 174 151 178 q 144 164 147 169 q 142 154 143 160 q 140 144 140 149 q 144 134 140 139 q 158 129 149 129 q 239 165 213 129 q 281 244 265 201 q 286 263 283 254 q 292 279 289 271 l 422 236 l 392 140 l 540 140 l 540 140 m 467 571 q 459 534 467 551 q 438 503 451 517 q 407 482 425 489 q 369 475 389 475 q 301 503 331 475 q 272 571 272 532 q 280 609 272 592 q 300 639 288 626 l 300 640 q 333 661 315 654 q 369 668 350 668 q 438 640 410 668 q 467 571 467 611 l 467 571 m 394 571 q 388 590 394 582 q 369 597 381 597 q 359 595 364 597 q 351 590 354 593 q 346 583 347 588 q 344 571 344 578 q 352 553 344 561 q 369 546 360 546 q 380 548 375 546 q 388 553 385 550 q 392 560 390 556 q 394 571 394 565 l 394 571 z "},"":{"ha":475,"x_min":7,"x_max":500,"o":"m 344 -203 q 296 -258 328 -237 q 228 -279 264 -279 q 196 -279 217 -279 q 151 -279 175 -279 q 137 -279 144 -279 q 124 -279 129 -279 q 97 -279 108 -279 q 76 -279 85 -279 l 118 -178 l 210 -178 q 242 -169 233 -176 q 250 -151 251 -161 q 249 -147 250 -149 q 249 -142 249 -144 q 240 -128 246 -135 q 228 -117 235 -121 q 191 -94 210 -106 q 154 -72 172 -83 q 194 -4 174 -37 q 236 64 215 29 l 326 8 l 300 -39 q 341 -87 326 -58 q 356 -149 356 -117 q 353 -176 356 -162 q 344 -201 350 -189 l 344 -203 m 500 140 l 454 3 l 146 3 q 74 20 107 3 q 22 72 40 38 q 10 106 14 89 q 7 142 7 124 q 17 210 7 176 q 42 272 28 243 q 42 274 42 274 q 43 276 43 275 q 156 408 81 349 q 317 468 232 468 q 322 468 319 468 q 326 468 324 468 q 331 467 328 467 q 336 467 333 467 q 422 428 389 461 q 456 343 456 394 q 456 339 456 342 q 456 335 456 336 q 455 330 456 332 q 454 325 454 328 l 447 264 l 308 264 l 315 331 q 239 299 275 328 q 181 235 203 269 q 173 222 176 228 q 167 211 169 217 q 163 202 167 210 q 156 183 160 194 q 153 180 154 182 q 151 176 153 178 q 146 158 149 167 q 143 144 143 149 q 144 142 143 143 q 146 140 144 140 l 500 140 l 500 140 z "},"":{"ha":475,"x_min":3,"x_max":550,"o":"m 489 140 l 443 3 l 140 3 q 70 19 103 3 q 19 68 38 35 q 7 101 11 83 q 3 138 3 119 q 3 147 3 142 q 4 157 4 151 q 16 213 7 185 q 35 265 25 242 q 106 376 64 332 q 194 442 149 419 q 233 459 214 453 q 269 468 251 465 q 286 470 278 469 q 304 471 294 471 q 406 439 361 471 q 450 350 450 407 q 448 327 450 339 q 440 301 446 315 q 394 226 429 267 q 297 140 360 185 l 489 140 l 489 140 m 307 336 q 219 297 257 333 q 164 218 182 261 q 163 216 164 217 q 163 214 163 215 q 260 283 226 251 q 307 336 294 314 l 307 336 m 550 603 l 246 500 l 211 601 l 515 704 l 550 603 l 550 603 z "},"":{"ha":475,"x_min":3,"x_max":489,"o":"m 489 140 l 443 3 l 140 3 q 70 19 103 3 q 19 68 38 35 q 7 101 11 83 q 3 138 3 119 q 3 147 3 142 q 4 157 4 151 q 16 213 7 185 q 35 265 25 242 q 106 376 64 332 q 194 442 149 419 q 233 459 214 453 q 269 468 251 465 q 286 470 278 469 q 304 471 294 471 q 406 439 361 471 q 450 350 450 407 q 448 327 450 339 q 440 301 446 315 q 394 226 429 267 q 297 140 360 185 l 489 140 l 489 140 m 307 336 q 219 297 257 333 q 164 218 182 261 q 163 216 164 217 q 163 214 163 215 q 260 283 226 251 q 307 336 294 314 l 307 336 m 418 599 l 383 497 l 79 600 l 114 701 l 418 599 l 418 599 z "},"":{"ha":475,"x_min":3,"x_max":511,"o":"m 489 140 l 443 3 l 140 3 q 70 19 103 3 q 19 68 38 35 q 7 101 11 83 q 3 138 3 119 q 3 147 3 142 q 4 157 4 151 q 16 213 7 185 q 35 265 25 242 q 106 376 64 332 q 194 442 149 419 q 233 459 214 453 q 269 468 251 465 q 286 470 278 469 q 304 471 294 471 q 406 439 361 471 q 450 350 450 407 q 448 327 450 339 q 440 301 446 315 q 394 226 429 267 q 297 140 360 185 l 489 140 l 489 140 m 307 336 q 219 297 257 333 q 164 218 182 261 q 163 216 164 217 q 163 214 163 215 q 260 283 226 251 q 307 336 294 314 l 307 336 m 511 547 l 458 454 l 300 543 l 140 454 l 88 547 l 300 665 l 511 547 l 511 547 z "},"":{"ha":475,"x_min":3,"x_max":489,"o":"m 489 140 l 443 3 l 140 3 q 70 19 103 3 q 19 68 38 35 q 7 101 11 83 q 3 138 3 119 q 3 147 3 142 q 4 157 4 151 q 16 213 7 185 q 35 265 25 242 q 106 376 64 332 q 194 442 149 419 q 233 459 214 453 q 269 468 251 465 q 286 470 278 469 q 304 471 294 471 q 406 439 361 471 q 450 350 450 407 q 448 327 450 339 q 440 301 446 315 q 394 226 429 267 q 297 140 360 185 l 489 140 l 489 140 m 307 336 q 219 297 257 333 q 164 218 182 261 q 163 216 164 217 q 163 214 163 215 q 260 283 226 251 q 307 336 294 314 l 307 336 m 285 606 l 206 478 l 115 535 l 194 661 l 285 606 l 285 606 m 478 606 l 400 478 l 308 535 l 386 661 l 478 606 l 478 606 z "},"":{"ha":275,"x_min":4,"x_max":467,"o":"m 289 140 l 244 3 l 119 3 q 36 37 68 3 q 4 117 4 71 q 5 127 4 122 q 6 138 6 132 q 8 147 7 142 q 11 157 10 151 l 106 453 l 251 453 l 151 140 l 289 140 l 289 140 m 467 581 l 163 478 l 128 579 l 432 682 l 467 581 l 467 581 z "},"":{"ha":275,"x_min":-93,"x_max":289,"o":"m 289 140 l 244 3 l 119 3 q 36 37 68 3 q 4 117 4 71 q 5 127 4 122 q 6 138 6 132 q 8 147 7 142 q 11 157 10 151 l 106 453 l 251 453 l 151 140 l 289 140 l 289 140 m 246 585 l 211 483 l -93 586 l -58 688 l 246 585 l 246 585 z "},"":{"ha":275,"x_min":-29,"x_max":394,"o":"m 289 140 l 244 3 l 119 3 q 36 37 68 3 q 4 117 4 71 q 5 127 4 122 q 6 138 6 132 q 8 147 7 142 q 11 157 10 151 l 106 453 l 251 453 l 151 140 l 289 140 l 289 140 m 394 539 l 342 446 l 183 535 l 24 446 l -29 539 l 183 657 l 394 539 l 394 539 z "},"":{"ha":275,"x_min":4,"x_max":378,"o":"m 289 140 l 244 3 l 119 3 q 36 37 68 3 q 4 117 4 71 q 5 127 4 122 q 6 138 6 132 q 8 147 7 142 q 11 157 10 151 l 106 453 l 251 453 l 151 140 l 289 140 l 289 140 m 185 608 l 106 481 l 15 538 l 94 664 l 185 608 l 185 608 m 378 608 l 300 481 l 208 538 l 286 664 l 378 608 l 378 608 z "},"":{"ha":561,"x_min":0,"x_max":572,"o":"m 564 140 l 518 3 l 422 3 q 339 36 371 3 q 307 117 307 69 q 309 137 307 126 q 314 157 311 147 q 319 176 317 167 q 325 193 322 185 q 336 229 331 211 q 347 265 342 247 q 349 271 349 268 q 350 276 350 274 q 355 292 353 283 q 358 308 357 300 q 332 294 347 304 q 301 271 317 285 q 228 192 263 238 q 175 97 194 146 l 144 3 l 0 3 l 146 453 l 290 453 l 281 424 q 312 438 296 432 q 344 447 328 444 q 360 451 353 450 q 376 451 368 451 q 399 449 388 451 q 421 443 411 447 q 479 394 461 429 q 497 319 497 360 q 492 274 497 299 q 478 222 488 250 q 471 202 474 213 q 465 182 468 192 q 463 174 464 178 q 461 168 461 171 q 457 154 458 161 q 453 140 456 147 l 564 140 l 564 140 m 572 571 q 506 505 547 528 q 417 482 464 482 q 373 488 394 482 q 332 504 351 493 q 315 510 324 508 q 299 513 307 513 q 264 503 281 513 q 236 478 247 494 l 143 531 q 210 597 168 574 q 299 619 251 619 q 342 614 321 619 q 383 597 364 608 q 400 591 392 593 q 417 589 408 589 q 453 598 436 589 q 479 625 469 607 l 572 571 l 572 571 z "},"":{"ha":488,"x_min":4,"x_max":561,"o":"m 556 344 l 510 203 l 443 203 q 358 63 425 122 q 204 3 290 3 q 197 3 200 3 q 189 4 193 3 q 181 5 185 4 q 174 6 178 6 q 51 74 97 17 q 4 208 4 132 q 76 384 4 307 q 250 461 149 461 q 359 429 311 461 q 431 344 407 397 l 556 344 l 556 344 m 294 206 q 233 240 258 213 q 203 307 207 268 q 165 270 181 293 q 146 222 150 247 q 146 219 146 221 q 146 215 146 217 q 144 212 144 214 q 144 208 144 210 q 160 164 146 183 q 204 144 175 144 q 256 163 232 144 q 294 206 281 181 l 294 206 m 561 597 l 257 494 l 222 596 l 526 699 l 561 597 l 561 597 z "},"":{"ha":488,"x_min":4,"x_max":556,"o":"m 556 344 l 510 203 l 443 203 q 358 63 425 122 q 204 3 290 3 q 197 3 200 3 q 189 4 193 3 q 181 5 185 4 q 174 6 178 6 q 51 74 97 17 q 4 208 4 132 q 76 384 4 307 q 250 461 149 461 q 359 429 311 461 q 431 344 407 397 l 556 344 l 556 344 m 294 206 q 233 240 258 213 q 203 307 207 268 q 165 270 181 293 q 146 222 150 247 q 146 219 146 221 q 146 215 146 217 q 144 212 144 214 q 144 208 144 210 q 160 164 146 183 q 204 144 175 144 q 256 163 232 144 q 294 206 281 181 l 294 206 m 415 579 l 381 478 l 76 581 l 111 682 l 415 579 l 415 579 z "},"":{"ha":488,"x_min":4,"x_max":556,"o":"m 556 344 l 510 203 l 443 203 q 358 63 425 122 q 204 3 290 3 q 197 3 200 3 q 189 4 193 3 q 181 5 185 4 q 174 6 178 6 q 51 74 97 17 q 4 208 4 132 q 76 384 4 307 q 250 461 149 461 q 359 429 311 461 q 431 344 407 397 l 556 344 l 556 344 m 294 206 q 233 240 258 213 q 203 307 207 268 q 165 270 181 293 q 146 222 150 247 q 146 219 146 221 q 146 215 146 217 q 144 212 144 214 q 144 208 144 210 q 160 164 146 183 q 204 144 175 144 q 256 163 232 144 q 294 206 281 181 l 294 206 m 456 542 l 403 449 l 244 538 l 85 449 l 32 542 l 244 660 l 456 542 l 456 542 z "},"":{"ha":488,"x_min":4,"x_max":556,"o":"m 556 344 l 510 203 l 443 203 q 358 63 425 122 q 204 3 290 3 q 197 3 200 3 q 189 4 193 3 q 181 5 185 4 q 174 6 178 6 q 51 74 97 17 q 4 208 4 132 q 76 384 4 307 q 250 461 149 461 q 359 429 311 461 q 431 344 407 397 l 556 344 l 556 344 m 294 206 q 233 240 258 213 q 203 307 207 268 q 165 270 181 293 q 146 222 150 247 q 146 219 146 221 q 146 215 146 217 q 144 212 144 214 q 144 208 144 210 q 160 164 146 183 q 204 144 175 144 q 256 163 232 144 q 294 206 281 181 l 294 206 m 240 597 l 161 469 l 71 526 l 150 653 l 240 597 l 240 597 m 433 597 l 356 469 l 264 526 l 342 653 l 433 597 l 433 597 z "},"":{"ha":488,"x_min":4,"x_max":556,"o":"m 556 344 l 510 203 l 443 203 q 358 63 425 122 q 204 3 290 3 q 197 3 200 3 q 189 4 193 3 q 181 5 185 4 q 174 6 178 6 q 51 74 97 17 q 4 208 4 132 q 76 384 4 307 q 250 461 149 461 q 359 429 311 461 q 431 344 407 397 l 556 344 l 556 344 m 294 206 q 233 240 258 213 q 203 307 207 268 q 165 270 181 293 q 146 222 150 247 q 146 219 146 221 q 146 215 146 217 q 144 212 144 214 q 144 208 144 210 q 160 164 146 183 q 204 144 175 144 q 256 163 232 144 q 294 206 281 181 l 294 206 m 489 574 q 422 508 464 531 q 333 485 381 485 q 290 490 311 485 q 249 507 268 496 q 232 513 240 511 q 215 515 224 515 q 181 506 197 515 q 153 481 164 497 l 60 533 q 126 599 85 576 q 215 622 168 622 q 259 617 238 622 q 300 600 281 611 q 317 594 308 596 q 333 592 325 592 q 369 601 353 592 q 396 628 386 610 l 489 574 l 489 574 z "},"":{"ha":469,"x_min":6,"x_max":583,"o":"m 483 140 l 438 3 q 417 3 428 3 q 396 3 407 3 q 337 14 365 3 q 286 44 308 25 q 226 14 258 25 q 160 3 193 3 q 147 3 153 3 q 133 6 140 4 q 120 8 126 6 q 107 11 114 10 q 31 68 57 28 q 7 156 6 108 q 8 169 7 163 q 10 183 8 176 q 12 197 10 190 q 15 211 14 204 l 93 453 l 238 453 l 146 168 q 144 160 144 164 q 143 153 143 156 q 147 144 143 147 q 160 140 150 140 q 168 141 164 140 q 176 143 172 142 q 221 167 200 149 q 249 207 242 186 q 249 209 249 208 q 250 211 250 210 l 329 453 l 472 453 l 382 168 q 380 160 381 164 q 379 153 379 156 q 383 144 379 147 q 396 140 386 140 l 483 140 l 483 140 m 583 594 l 279 492 l 244 593 l 549 696 l 583 594 l 583 594 z "},"":{"ha":469,"x_min":6,"x_max":483,"o":"m 483 140 l 438 3 q 417 3 428 3 q 396 3 407 3 q 337 14 365 3 q 286 44 308 25 q 226 14 258 25 q 160 3 193 3 q 147 3 153 3 q 133 6 140 4 q 120 8 126 6 q 107 11 114 10 q 31 68 57 28 q 7 156 6 108 q 8 169 7 163 q 10 183 8 176 q 12 197 10 190 q 15 211 14 204 l 93 453 l 238 453 l 146 168 q 144 160 144 164 q 143 153 143 156 q 147 144 143 147 q 160 140 150 140 q 168 141 164 140 q 176 143 172 142 q 221 167 200 149 q 249 207 242 186 q 249 209 249 208 q 250 211 250 210 l 329 453 l 472 453 l 382 168 q 380 160 381 164 q 379 153 379 156 q 383 144 379 147 q 396 140 386 140 l 483 140 l 483 140 m 435 582 l 400 481 l 96 583 l 131 685 l 435 582 l 435 582 z "},"":{"ha":469,"x_min":6,"x_max":500,"o":"m 483 140 l 438 3 q 417 3 428 3 q 396 3 407 3 q 337 14 365 3 q 286 44 308 25 q 226 14 258 25 q 160 3 193 3 q 147 3 153 3 q 133 6 140 4 q 120 8 126 6 q 107 11 114 10 q 31 68 57 28 q 7 156 6 108 q 8 169 7 163 q 10 183 8 176 q 12 197 10 190 q 15 211 14 204 l 93 453 l 238 453 l 146 168 q 144 160 144 164 q 143 153 143 156 q 147 144 143 147 q 160 140 150 140 q 168 141 164 140 q 176 143 172 142 q 221 167 200 149 q 249 207 242 186 q 249 209 249 208 q 250 211 250 210 l 329 453 l 472 453 l 382 168 q 380 160 381 164 q 379 153 379 156 q 383 144 379 147 q 396 140 386 140 l 483 140 l 483 140 m 500 564 l 447 471 l 289 560 l 129 471 l 76 564 l 289 682 l 500 564 l 500 564 z "},"":{"ha":469,"x_min":6,"x_max":489,"o":"m 483 140 l 438 3 q 417 3 428 3 q 396 3 407 3 q 337 14 365 3 q 286 44 308 25 q 226 14 258 25 q 160 3 193 3 q 147 3 153 3 q 133 6 140 4 q 120 8 126 6 q 107 11 114 10 q 31 68 57 28 q 7 156 6 108 q 8 169 7 163 q 10 183 8 176 q 12 197 10 190 q 15 211 14 204 l 93 453 l 238 453 l 146 168 q 144 160 144 164 q 143 153 143 156 q 147 144 143 147 q 160 140 150 140 q 168 141 164 140 q 176 143 172 142 q 221 167 200 149 q 249 207 242 186 q 249 209 249 208 q 250 211 250 210 l 329 453 l 472 453 l 382 168 q 380 160 381 164 q 379 153 379 156 q 383 144 379 147 q 396 140 386 140 l 483 140 l 483 140 m 296 597 l 217 469 l 126 526 l 206 653 l 296 597 l 296 597 m 489 597 l 411 469 l 319 526 l 397 653 l 489 597 l 489 597 z "},"":{"ha":694,"x_min":0,"x_max":0,"o":""},"":{"ha":483,"x_min":7,"x_max":624,"o":"m 600 621 q 560 556 585 590 q 503 488 535 522 q 493 476 499 482 q 482 464 488 469 l 382 560 q 438 624 414 593 q 476 681 463 654 q 480 689 479 685 q 482 696 481 693 q 484 699 483 697 q 485 701 485 700 q 476 703 481 703 q 468 703 472 703 q 451 701 460 703 q 433 696 442 699 q 406 683 419 690 q 382 668 393 675 q 369 658 375 663 q 358 650 364 654 q 326 626 343 639 q 292 596 310 613 q 214 508 251 557 q 158 408 176 460 q 148 372 151 390 q 144 338 144 354 q 151 303 144 317 q 181 289 158 289 q 242 289 211 289 q 303 289 272 289 q 364 289 333 289 q 425 289 394 289 l 381 151 q 350 151 365 151 q 319 151 335 151 q 288 151 303 151 q 257 151 272 151 l 208 3 l 113 3 l 161 153 q 48 213 89 160 q 7 338 7 265 q 7 349 7 343 q 8 363 7 356 q 85 565 17 467 q 235 729 154 663 q 256 747 246 739 q 278 763 267 756 q 326 793 300 778 q 378 819 351 808 l 404 899 l 500 899 l 481 840 q 524 834 503 840 q 564 817 544 828 q 610 769 596 797 q 624 711 624 742 q 617 666 624 689 q 600 621 611 643 l 600 621 z "},"":{"ha":646,"x_min":0,"x_max":676,"o":"m 676 678 l 563 601 q 542 619 554 614 q 514 624 529 624 q 500 622 507 624 q 486 619 493 621 q 456 610 471 615 q 431 597 442 604 q 420 591 425 594 q 411 585 415 588 q 360 530 376 558 q 333 467 344 501 q 329 454 331 460 q 325 442 328 449 l 436 442 l 392 303 l 281 303 l 249 206 q 303 199 276 204 q 351 183 329 193 q 386 174 367 178 q 426 171 406 171 q 444 172 435 171 q 463 172 453 172 q 531 186 497 176 q 590 208 565 196 l 650 85 q 565 53 611 67 q 471 36 518 40 q 449 34 460 35 q 426 33 438 33 q 360 39 392 33 q 300 56 328 44 q 263 65 283 63 q 222 68 243 68 q 208 68 215 68 q 193 67 200 68 q 121 54 156 64 q 60 32 86 44 l 0 156 q 35 172 17 164 q 74 185 54 179 q 86 188 79 186 q 99 190 93 189 l 136 303 l 60 303 l 104 442 l 181 442 q 188 465 185 453 q 196 489 192 476 q 203 512 200 500 q 211 536 207 524 q 328 694 242 628 q 511 761 414 761 q 604 741 560 761 q 676 678 649 721 l 676 678 z "},"":{"ha":694,"x_min":0,"x_max":0,"o":""},"":{"ha":694,"x_min":0,"x_max":0,"o":""},"":{"ha":722,"x_min":-24,"x_max":739,"o":"m 739 142 l 694 3 l 246 3 l 292 142 l 385 142 q 448 161 422 142 q 474 221 474 181 q 448 299 474 265 q 390 360 422 332 q 375 375 383 368 q 360 389 367 382 q 344 405 351 397 q 328 419 336 413 q 312 435 319 428 q 296 450 304 443 q 329 472 313 461 q 363 493 346 482 q 397 515 379 504 q 431 536 414 525 q 440 542 435 539 q 449 549 444 544 q 493 593 472 567 q 514 650 514 619 q 503 678 514 669 q 474 686 492 686 q 465 685 469 686 q 456 685 460 685 q 383 648 417 678 q 338 583 349 618 l 121 -82 l -24 -82 q 41 116 8 17 q 106 314 74 215 l 17 314 l 61 451 l 150 451 q 164 495 157 474 q 178 539 171 517 q 192 581 185 560 q 206 625 199 603 q 306 763 231 704 q 467 825 382 822 q 469 825 468 825 q 472 825 471 825 q 503 823 488 825 q 535 815 519 821 q 620 752 589 797 q 651 650 651 707 q 613 524 651 582 q 518 429 574 467 q 582 338 557 389 q 611 232 607 286 q 611 226 611 229 q 611 218 611 222 q 608 180 611 199 q 597 142 604 161 l 739 142 l 739 142 z "},"":{"ha":694,"x_min":0,"x_max":0,"o":""},"":{"ha":694,"x_min":0,"x_max":0,"o":""},"":{"ha":694,"x_min":0,"x_max":0,"o":""},"":{"ha":474,"x_min":83,"x_max":422,"o":"m 422 783 l 118 681 l 83 782 l 388 885 l 422 783 l 422 783 z "},"":{"ha":399,"x_min":18,"x_max":381,"o":"m 188 797 l 108 669 l 18 726 l 97 853 l 188 797 l 188 797 m 381 797 l 303 669 l 211 726 l 289 853 l 381 797 l 381 797 z "},"":{"ha":694,"x_min":0,"x_max":0,"o":""},"":{"ha":1231,"x_min":1,"x_max":1328,"o":"m 1319 749 q 1326 724 1324 736 q 1328 701 1328 713 q 1281 588 1328 640 q 1179 492 1235 535 q 1122 450 1150 469 q 1072 415 1093 431 l 989 524 q 1023 548 993 526 q 1089 597 1053 569 q 1102 608 1096 603 q 1114 618 1108 613 q 1167 666 1144 643 q 1189 701 1190 689 q 1188 706 1189 704 q 1185 708 1188 707 q 1160 719 1174 715 q 1132 722 1147 722 q 1112 721 1122 722 q 1090 717 1101 719 q 1049 706 1069 713 q 1010 692 1028 699 q 994 683 1001 688 q 979 676 986 679 q 953 661 971 672 q 915 635 935 650 q 887 613 900 625 q 864 588 874 600 q 849 566 854 576 q 844 546 844 556 q 845 543 844 544 q 846 540 846 542 q 847 537 846 539 q 849 532 847 535 l 847 535 l 949 354 q 901 319 925 336 q 854 283 878 301 q 807 249 831 267 q 760 213 783 231 q 713 178 736 196 q 665 142 689 160 l 1233 142 l 1189 3 q 927 3 1058 3 q 664 3 796 3 q 550 39 590 3 q 510 124 510 75 q 516 163 510 143 q 536 203 522 183 l 297 203 q 298 172 297 188 q 300 140 299 157 q 319 35 306 88 q 346 -67 332 -17 q 351 -83 349 -75 q 356 -99 353 -90 l 224 -139 q 222 -131 222 -135 q 219 -125 221 -128 q 178 38 197 -44 q 160 203 158 119 l 1 203 l 46 340 l 179 340 q 251 522 206 439 q 353 665 297 604 q 437 742 393 710 q 525 796 481 775 q 588 817 557 810 q 647 824 618 824 q 751 803 707 824 q 821 739 794 783 q 915 800 864 774 q 1021 842 967 826 q 1076 853 1049 849 q 1131 857 1104 857 q 1199 848 1167 856 q 1258 824 1232 840 q 1295 791 1279 810 q 1319 749 1311 772 l 1319 749 m 708 649 q 688 677 703 668 q 647 686 672 686 q 587 673 619 686 q 521 635 554 660 q 488 607 504 622 q 456 574 472 592 q 380 469 414 528 q 322 340 346 410 l 656 340 q 667 376 661 357 q 679 417 672 396 q 692 460 686 438 q 703 507 697 483 q 711 554 708 531 q 714 600 714 578 q 713 626 714 614 q 708 649 711 638 l 708 649 z "},"":{"ha":863,"x_min":7,"x_max":1014,"o":"m 1014 596 l 969 458 l 814 458 q 669 143 807 282 q 353 4 531 4 q 319 6 336 4 q 286 10 303 7 q 251 17 268 13 q 219 28 235 22 l 122 -129 l 43 -129 l 161 58 q 48 183 89 106 q 7 353 7 261 q 147 680 7 535 q 471 825 286 825 q 549 817 511 825 q 621 792 586 808 l 696 910 l 774 910 l 678 758 q 748 687 718 728 q 794 596 778 646 l 1014 596 l 1014 596 m 675 458 q 666 458 671 458 q 657 458 661 458 q 582 464 618 458 q 519 506 546 469 l 294 149 q 322 143 308 144 q 350 142 336 142 q 572 239 475 142 q 675 458 668 336 l 675 458 m 524 681 q 510 683 517 682 q 497 686 504 685 q 484 687 490 686 q 471 688 478 688 q 244 583 343 688 q 146 353 146 479 q 169 249 146 296 q 233 175 193 203 l 499 597 q 507 633 501 615 q 518 667 513 650 q 521 674 519 671 q 524 681 522 678 l 524 681 z "},"":{"ha":382,"x_min":0,"x_max":0,"o":""},"":{"ha":694,"x_min":0,"x_max":0,"o":""},"":{"ha":694,"x_min":0,"x_max":0,"o":""},"":{"ha":694,"x_min":0,"x_max":0,"o":""},"":{"ha":631,"x_min":-1,"x_max":829,"o":"m 829 824 q 778 760 806 794 q 721 689 750 725 q 715 682 718 686 q 710 675 713 678 q 638 588 672 629 q 575 517 603 546 l 642 517 l 613 425 l 488 425 q 480 417 483 421 q 472 411 476 414 q 465 403 468 407 q 457 396 461 400 l 604 396 l 574 304 l 365 304 l 268 3 l 124 3 l 219 304 l -1 304 l 28 396 l 196 396 q 194 403 194 400 q 193 411 193 407 q 191 417 192 414 q 189 425 190 421 l 36 425 l 67 517 l 179 517 q 176 593 176 554 q 178 671 176 632 q 182 736 179 703 q 188 801 185 769 q 188 813 188 807 q 189 824 189 818 l 328 824 q 327 809 328 817 q 325 793 326 801 q 319 724 322 760 q 315 653 317 689 q 315 553 314 603 q 322 461 315 504 q 432 563 379 508 q 533 675 485 618 q 596 751 565 714 q 654 824 626 789 l 829 824 l 829 824 z "},"":{"ha":694,"x_min":0,"x_max":0,"o":""},"":{"ha":694,"x_min":0,"x_max":0,"o":""},"":{"ha":694,"x_min":0,"x_max":0,"o":""},"":{"ha":382,"x_min":0,"x_max":0,"o":""},"":{"ha":694,"x_min":0,"x_max":0,"o":""},"":{"ha":382,"x_min":0,"x_max":0,"o":""},"":{"ha":246,"x_min":7,"x_max":367,"o":"m 367 597 l 336 506 l 246 506 q 219 510 232 506 q 197 522 207 515 q 168 508 183 514 q 136 500 153 503 q 124 499 131 500 q 111 499 118 499 q 57 511 82 499 q 17 554 32 524 q 9 577 11 565 q 7 600 7 589 q 16 647 7 624 q 39 690 25 671 q 161 781 88 756 q 313 807 235 807 l 313 714 q 253 710 282 714 q 197 696 224 707 q 151 673 172 688 q 114 638 129 658 q 110 633 113 636 q 107 626 108 629 q 104 620 106 624 q 101 614 103 617 q 99 606 100 610 q 99 600 99 603 q 101 593 99 596 q 110 590 104 590 q 164 615 146 590 q 193 668 182 639 q 197 679 194 674 q 200 690 199 685 l 288 663 l 267 597 l 367 597 l 367 597 z "},"":{"ha":207,"x_min":3,"x_max":372,"o":"m 372 744 l 342 650 l 297 650 q 239 556 283 596 q 138 517 194 517 q 127 517 132 517 q 117 518 122 517 q 34 564 65 525 q 3 653 3 603 q 51 770 3 718 q 168 822 100 822 q 240 801 208 822 q 289 744 272 781 l 372 744 l 372 744 m 197 651 q 156 675 174 657 q 136 719 139 693 q 110 694 121 710 q 97 663 100 679 q 97 659 97 661 q 97 656 97 657 q 107 624 97 638 q 136 611 117 611 q 172 623 156 611 q 197 651 188 635 l 197 651 z "},"":{"ha":694,"x_min":0,"x_max":0,"o":""},"":{"ha":849,"x_min":10,"x_max":856,"o":"m 856 140 l 810 3 l 367 3 q 326 10 344 3 q 293 28 308 17 q 248 7 272 15 q 200 -4 224 -1 q 183 -6 192 -6 q 167 -7 175 -7 q 85 13 124 -7 q 25 75 47 32 q 13 110 17 93 q 10 146 10 128 q 23 216 10 182 q 58 279 36 250 q 235 413 128 375 q 456 451 342 450 q 460 451 458 451 q 465 451 463 451 l 465 353 q 524 414 493 389 q 589 453 556 439 q 621 465 604 460 q 653 472 638 469 q 669 474 661 474 q 688 475 678 475 q 788 442 744 475 q 832 353 832 410 q 830 329 832 342 q 822 303 828 317 q 777 228 811 269 q 679 140 743 186 l 856 140 l 856 140 m 439 313 q 365 305 401 311 q 293 288 328 299 q 225 253 257 275 q 169 199 193 231 q 165 192 168 196 q 160 183 163 188 q 155 174 157 179 q 151 164 153 169 q 148 154 149 160 q 147 144 147 149 q 151 134 147 139 q 165 129 156 129 q 245 165 219 129 q 286 244 271 201 q 292 263 289 254 q 297 279 294 271 l 407 243 q 410 249 408 246 q 413 256 411 253 q 414 262 413 258 q 417 268 415 265 q 428 291 422 279 q 439 313 433 303 l 439 313 m 689 339 q 601 301 639 338 q 546 219 564 264 q 545 217 546 218 q 544 215 544 217 q 643 285 608 254 q 689 339 678 317 l 689 339 z "},"":{"ha":478,"x_min":0,"x_max":554,"o":"m 554 344 l 510 203 l 442 203 q 356 63 424 122 q 203 3 289 3 q 188 3 196 3 q 174 6 181 4 q 168 6 171 6 q 163 7 165 7 q 151 10 157 8 q 140 14 146 13 l 78 -85 l 0 -85 l 81 44 q 24 115 44 72 q 3 208 3 158 q 76 384 3 307 q 249 461 149 461 q 293 457 272 461 q 332 444 314 453 l 393 542 l 471 542 l 386 407 q 411 378 400 393 q 429 344 422 363 l 554 344 l 554 344 m 294 206 q 281 210 288 208 q 267 215 274 213 l 222 146 q 265 169 246 153 q 294 206 283 185 l 294 206 m 217 261 q 208 283 211 272 q 203 307 204 294 q 165 270 181 293 q 146 222 149 247 q 144 214 144 218 q 144 206 144 210 q 148 184 144 194 q 157 167 151 174 l 217 261 l 217 261 z "},"":{"ha":556,"x_min":15,"x_max":563,"o":"m 15 -171 q 53 -53 15 -101 q 138 36 92 -6 q 146 43 142 39 q 154 50 150 47 q 158 53 156 51 q 161 57 160 56 q 174 69 168 63 q 188 81 181 75 q 201 94 194 88 q 215 106 208 100 q 277 169 250 139 q 311 221 304 200 l 329 275 l 468 275 q 463 258 465 267 q 458 239 461 249 q 449 203 454 221 q 442 178 444 186 q 422 135 435 157 q 390 90 408 113 q 344 40 369 65 q 294 -7 319 15 q 274 -26 285 -17 q 254 -44 264 -35 q 197 -98 222 -74 q 167 -132 171 -122 q 158 -149 161 -142 q 154 -164 156 -157 q 165 -165 158 -165 q 181 -165 171 -165 q 272 -165 226 -165 q 364 -165 318 -165 q 408 -149 392 -165 q 425 -111 425 -133 q 424 -105 425 -108 q 424 -99 424 -101 q 415 -80 421 -89 q 399 -62 408 -71 l 486 43 q 542 -28 522 13 q 563 -111 563 -68 q 562 -127 563 -119 q 560 -143 561 -135 q 556 -159 558 -151 q 551 -175 554 -167 q 478 -269 529 -235 q 364 -303 426 -303 q 272 -303 318 -303 q 181 -303 226 -303 q 66 -271 117 -303 q 15 -169 15 -239 l 15 -171 m 333 378 l 379 517 l 524 517 l 479 378 l 333 378 l 333 378 z "},"":{"ha":361,"x_min":21,"x_max":432,"o":"m 21 -221 l 208 354 l 353 354 l 165 -221 l 21 -221 l 21 -221 m 243 464 l 288 600 l 432 600 l 389 464 l 243 464 l 243 464 z "},"":{"ha":694,"x_min":0,"x_max":0,"o":""},"":{"ha":694,"x_min":0,"x_max":0,"o":""},"":{"ha":694,"x_min":0,"x_max":0,"o":""},"":{"ha":694,"x_min":0,"x_max":0,"o":""},"":{"ha":694,"x_min":0,"x_max":0,"o":""},"":{"ha":486,"x_min":14,"x_max":485,"o":"m 304 264 l 235 194 l 14 414 l 235 635 l 304 564 l 154 414 l 304 264 l 304 264 m 485 264 l 415 194 l 194 414 l 415 635 l 485 564 l 335 414 l 485 264 l 485 264 z "},"":{"ha":482,"x_min":13,"x_max":483,"o":"m 13 264 l 163 414 l 13 564 l 82 635 l 303 414 l 82 194 l 13 264 l 13 264 m 193 264 l 343 414 l 193 564 l 263 635 l 483 414 l 263 194 l 193 264 l 193 264 z "},"":{"ha":694,"x_min":0,"x_max":0,"o":""},"":{"ha":790,"x_min":-4,"x_max":846,"o":"m 838 681 q 844 644 842 664 q 846 604 846 625 q 832 482 846 551 q 790 325 818 413 l 685 4 l 540 4 l 606 203 l 294 203 q 295 153 293 178 q 300 101 297 128 q 308 61 303 82 q 317 21 313 40 q 331 -26 324 -3 q 344 -74 338 -50 q 348 -87 346 -81 q 351 -99 350 -93 l 219 -139 q 190 -31 204 -86 q 165 79 175 24 q 160 110 163 94 q 157 142 158 125 q 155 172 156 157 q 154 203 154 188 l -4 203 l 40 342 l 175 342 q 247 522 201 439 q 349 667 293 604 q 438 748 392 714 q 533 801 485 782 q 589 819 561 813 q 643 825 617 825 q 770 792 721 825 q 838 681 819 758 l 838 681 m 706 649 q 684 678 700 669 q 643 688 668 688 q 583 674 615 688 q 517 635 550 660 q 484 607 500 622 q 451 574 468 592 q 370 464 404 522 q 317 342 336 406 l 650 342 l 658 367 q 698 508 686 449 q 710 608 710 567 q 709 630 710 619 q 706 649 708 640 l 706 649 m 768 946 l 733 844 l 429 947 l 464 1049 l 768 946 l 768 946 z "},"":{"ha":790,"x_min":-4,"x_max":861,"o":"m 838 681 q 844 644 842 664 q 846 604 846 625 q 832 482 846 551 q 790 325 818 413 l 685 4 l 540 4 l 606 203 l 294 203 q 295 153 293 178 q 300 101 297 128 q 308 61 303 82 q 317 21 313 40 q 331 -26 324 -3 q 344 -74 338 -50 q 348 -87 346 -81 q 351 -99 350 -93 l 219 -139 q 190 -31 204 -86 q 165 79 175 24 q 160 110 163 94 q 157 142 158 125 q 155 172 156 157 q 154 203 154 188 l -4 203 l 40 342 l 175 342 q 247 522 201 439 q 349 667 293 604 q 438 748 392 714 q 533 801 485 782 q 589 819 561 813 q 643 825 617 825 q 770 792 721 825 q 838 681 819 758 l 838 681 m 706 649 q 684 678 700 669 q 643 688 668 688 q 583 674 615 688 q 517 635 550 660 q 484 607 500 622 q 451 574 468 592 q 370 464 404 522 q 317 342 336 406 l 650 342 l 658 367 q 698 508 686 449 q 710 608 710 567 q 709 630 710 619 q 706 649 708 640 l 706 649 m 861 943 q 794 877 836 900 q 706 854 753 854 q 662 860 683 854 q 621 876 640 865 q 604 883 613 881 q 588 885 596 885 q 553 876 569 885 q 525 850 536 867 l 432 903 q 499 969 457 946 q 588 992 540 992 q 631 986 610 992 q 672 969 653 981 q 689 963 681 965 q 706 961 697 961 q 742 970 725 961 q 768 997 758 979 l 861 943 l 861 943 z "},"":{"ha":857,"x_min":4,"x_max":1010,"o":"m 1010 596 l 965 458 l 810 458 q 665 143 803 282 q 350 4 528 4 q 317 6 333 4 q 283 10 300 7 q 81 129 157 32 q 4 353 4 226 q 144 680 4 535 q 468 825 283 825 q 667 763 579 825 q 792 596 756 701 l 1010 596 l 1010 596 m 672 458 q 663 458 668 458 q 654 458 658 458 q 578 464 614 458 q 515 508 542 469 q 499 542 504 525 q 493 574 493 558 q 500 618 493 596 q 515 664 507 640 q 518 672 517 668 q 521 681 519 676 q 494 685 507 683 q 468 688 481 688 q 240 583 339 688 q 142 353 142 479 q 199 202 142 263 q 347 142 256 142 q 567 239 471 142 q 672 458 664 336 l 672 458 m 694 935 q 628 869 669 892 q 539 846 586 846 q 495 851 517 846 q 454 868 474 857 q 438 874 446 872 q 421 876 429 876 q 386 867 403 876 q 358 842 369 858 l 265 894 q 332 960 290 938 q 421 983 374 983 q 465 978 443 983 q 506 961 486 972 q 522 955 514 957 q 539 953 531 953 q 575 962 558 953 q 601 989 592 971 l 694 935 l 694 935 z "},"":{"ha":1199,"x_min":3,"x_max":1286,"o":"m 1278 749 q 1284 724 1282 736 q 1286 701 1286 713 q 1240 588 1286 640 q 1138 492 1193 535 q 1080 450 1108 469 q 1031 415 1051 431 l 949 524 q 983 548 953 526 q 1047 597 1013 569 q 1060 608 1054 603 q 1072 617 1067 613 q 1125 665 1103 642 q 1147 700 1147 688 q 1147 705 1147 703 q 1143 708 1146 707 q 1119 719 1132 715 q 1090 722 1106 722 q 1070 721 1081 722 q 1049 717 1060 719 q 1007 706 1028 713 q 968 692 986 699 q 952 683 960 688 q 938 676 944 679 q 847 620 876 646 q 810 571 817 594 q 806 560 807 565 q 806 549 806 554 q 838 466 806 511 q 908 354 869 421 q 861 319 885 336 q 814 283 838 301 q 719 213 767 249 q 625 142 672 178 l 1199 142 l 1153 3 q 888 3 1021 3 q 622 3 756 3 q 558 13 588 3 q 510 38 529 22 q 428 13 471 21 q 343 4 386 4 q 201 34 269 4 q 79 128 132 64 q 22 235 40 178 q 3 350 3 292 q 3 356 3 353 q 3 361 3 358 q 52 550 6 458 q 171 707 99 642 q 298 787 228 757 q 440 822 368 817 q 456 824 447 824 q 471 824 464 824 q 613 794 544 824 q 733 700 682 765 q 735 699 735 700 q 735 697 735 699 q 846 785 781 747 q 981 842 911 824 q 1035 853 1008 849 q 1089 857 1063 857 q 1158 849 1125 857 q 1217 824 1190 840 q 1254 791 1239 810 q 1278 749 1269 772 l 1278 749 m 626 314 q 660 392 647 350 q 672 476 672 433 q 661 549 672 514 q 626 614 650 583 q 556 669 596 653 q 471 686 515 686 q 458 686 465 686 q 446 685 451 686 q 348 658 396 681 q 263 604 300 636 q 183 503 217 564 q 142 375 149 442 q 141 363 142 369 q 140 349 140 356 q 152 279 142 314 q 188 214 163 244 q 261 158 219 175 q 346 142 303 140 q 357 142 351 142 q 369 143 363 142 q 426 154 397 146 q 479 175 454 163 q 505 215 489 196 q 543 253 521 235 q 585 283 564 268 q 626 314 606 299 l 626 314 z "},"":{"ha":753,"x_min":4,"x_max":767,"o":"m 767 140 l 722 3 l 435 3 q 381 13 407 3 q 335 40 354 22 q 275 13 307 22 q 210 3 243 3 q 201 3 206 3 q 194 4 197 3 q 186 5 190 4 q 178 6 182 6 q 52 76 100 17 q 4 213 4 136 q 78 392 4 313 q 256 471 153 471 q 346 450 304 471 q 414 394 388 429 q 451 425 432 411 q 489 449 469 439 q 527 463 508 457 q 564 472 546 469 q 583 475 574 475 q 600 475 592 475 q 701 442 657 475 q 743 353 744 410 q 741 329 743 342 q 735 303 739 317 q 689 228 724 269 q 592 140 654 188 l 767 140 l 767 140 m 301 210 q 238 247 264 218 q 207 314 211 275 q 169 276 185 300 q 150 226 153 253 q 149 223 150 225 q 149 219 149 221 q 149 215 149 217 q 149 211 149 214 q 164 167 149 186 q 208 147 179 147 q 263 165 238 147 q 301 210 288 183 l 301 210 m 601 339 q 514 301 551 338 q 457 219 476 264 q 456 217 457 218 q 456 215 456 217 q 555 285 521 254 q 601 339 589 317 l 601 339 z "},"":{"ha":1006,"x_min":-17,"x_max":1015,"o":"m 1015 483 l 969 346 l -17 346 l 28 483 l 1015 483 l 1015 483 z "},"":{"ha":176,"x_min":19,"x_max":404,"o":"m 238 857 l 151 697 l 19 697 l 107 857 l 238 857 l 238 857 m 404 857 l 318 697 l 186 697 l 274 857 l 404 857 l 404 857 z "},"":{"ha":193,"x_min":19,"x_max":404,"o":"m 238 857 l 151 697 l 19 697 l 107 857 l 238 857 l 238 857 m 404 857 l 318 697 l 186 697 l 274 857 l 404 857 l 404 857 z "},"":{"ha":46,"x_min":13,"x_max":231,"o":"m 231 857 l 144 697 l 13 697 l 100 857 l 231 857 l 231 857 z "},"":{"ha":46,"x_min":13,"x_max":231,"o":"m 231 857 l 144 697 l 13 697 l 100 857 l 231 857 l 231 857 z "},"":{"ha":694,"x_min":0,"x_max":0,"o":""},"":{"ha":694,"x_min":0,"x_max":0,"o":""},"":{"ha":451,"x_min":1,"x_max":513,"o":"m 513 453 q 500 424 507 439 q 486 396 493 410 q 453 324 472 364 q 413 243 435 283 q 400 219 407 231 q 386 196 393 207 q 385 120 386 158 q 379 43 383 82 q 288 -241 361 -108 q 51 -415 214 -374 l 18 -283 q 174 -165 125 -256 q 239 29 224 -74 q 197 10 218 17 q 151 4 175 4 q 42 49 83 4 q 1 156 1 94 q 4 184 1 169 q 11 213 7 199 q 51 333 31 272 q 89 453 71 393 l 233 453 q 188 311 211 382 q 142 169 165 240 q 141 167 142 168 q 140 164 140 165 q 140 158 140 161 q 139 153 139 156 q 142 144 139 147 q 151 142 144 142 q 186 156 168 142 q 224 193 204 169 q 265 256 244 221 q 303 329 285 292 q 335 394 319 363 q 361 451 350 425 q 361 451 361 451 q 361 453 361 451 l 513 453 l 513 453 m 307 594 l 228 467 l 138 524 l 217 650 l 307 594 l 307 594 m 500 594 l 422 467 l 331 524 l 408 650 l 500 594 l 500 594 z "},"":{"ha":631,"x_min":8,"x_max":788,"o":"m 788 825 q 713 679 749 753 q 642 531 676 606 q 635 517 639 524 q 628 504 632 510 q 625 499 626 501 q 622 493 624 496 q 609 465 615 479 q 597 436 603 451 q 549 273 583 392 q 469 22 515 154 q 450 -33 460 -6 q 429 -87 440 -61 q 367 -233 399 -164 q 301 -351 335 -301 q 286 -374 294 -362 q 269 -394 278 -385 l 167 -306 q 210 -240 188 -281 q 256 -147 232 -199 q 278 -94 267 -121 q 300 -37 289 -67 q 319 8 310 -15 q 335 56 328 32 q 261 17 300 31 q 178 4 222 4 q 44 61 79 4 q 8 199 8 118 q 10 244 8 221 q 17 290 13 268 q 31 364 22 328 q 47 433 39 400 q 63 483 56 460 q 75 525 69 507 q 83 550 78 531 q 96 594 89 569 q 99 603 97 599 q 101 614 100 608 q 113 663 108 640 q 118 697 118 686 q 118 701 118 700 q 117 703 118 701 q 86 706 111 706 q 21 703 61 706 l 14 840 q 122 841 75 844 q 203 810 168 838 q 241 757 231 788 q 251 690 251 726 q 250 659 251 675 q 246 628 249 643 q 235 583 242 606 q 224 539 229 560 q 215 512 219 525 q 207 486 211 499 q 196 449 204 478 q 176 381 188 419 q 169 349 172 365 q 161 315 165 332 q 150 256 154 285 q 146 203 146 226 q 153 159 146 176 q 178 142 160 142 q 335 243 263 142 q 467 481 407 344 q 478 514 474 496 q 489 553 483 532 q 497 584 493 568 q 504 617 500 600 q 508 626 507 621 q 511 638 510 632 q 540 731 525 685 q 572 825 556 778 l 788 825 l 788 825 m 413 947 l 333 819 l 243 876 l 322 1003 l 413 947 l 413 947 m 606 947 l 528 819 l 436 876 l 514 1003 l 606 947 l 606 947 z "},"":{"ha":694,"x_min":0,"x_max":0,"o":""},"":{"ha":764,"x_min":4,"x_max":886,"o":"m 886 715 l 789 617 q 724 668 764 651 q 636 685 685 685 q 631 685 633 685 q 625 685 628 685 q 456 635 538 682 q 318 517 375 588 l 689 517 l 596 425 l 261 425 q 256 410 258 418 q 250 396 253 403 l 567 396 l 475 304 l 233 304 q 278 184 233 232 q 413 136 324 136 q 476 142 443 136 q 540 161 508 149 q 594 188 567 172 q 647 222 621 203 l 731 113 q 606 41 676 71 q 464 3 536 11 q 434 0 449 0 q 406 0 419 0 q 262 30 329 0 q 146 129 194 60 q 110 199 122 163 q 96 274 97 236 q 94 290 94 282 q 94 304 94 297 l 4 304 l 33 396 l 106 396 q 110 410 108 403 q 114 425 113 418 l 36 425 l 65 517 l 154 517 q 229 624 186 574 q 319 708 272 674 q 444 778 374 749 q 586 818 514 808 q 616 822 601 821 q 644 822 631 822 q 776 797 714 822 q 886 715 839 772 l 886 715 z "},"":{"ha":318,"x_min":14,"x_max":304,"o":"m 304 264 l 235 194 l 14 414 l 235 635 l 304 564 l 154 414 l 304 264 l 304 264 z "},"":{"ha":318,"x_min":13,"x_max":303,"o":"m 13 264 l 163 414 l 13 564 l 82 635 l 303 414 l 82 194 l 13 264 l 13 264 z "},"":{"ha":694,"x_min":0,"x_max":0,"o":""},"":{"ha":694,"x_min":0,"x_max":0,"o":""},"":{"ha":694,"x_min":0,"x_max":0,"o":""},"":{"ha":182,"x_min":8,"x_max":174,"o":"m 174 447 q 149 388 174 413 q 90 364 125 364 q 33 388 57 364 q 8 447 8 413 q 33 506 8 482 q 90 529 57 529 q 149 506 125 529 q 174 447 174 482 l 174 447 z "},"":{"ha":240,"x_min":-168,"x_max":50,"o":"m 50 121 l -36 -39 l -168 -39 l -81 121 l 50 121 l 50 121 z "},"":{"ha":424,"x_min":19,"x_max":404,"o":"m 238 121 l 151 -39 l 19 -39 l 107 121 l 238 121 l 238 121 m 404 121 l 318 -39 l 186 -39 l 274 121 l 404 121 l 404 121 z "},"":{"ha":694,"x_min":0,"x_max":0,"o":""},"":{"ha":790,"x_min":-4,"x_max":867,"o":"m 838 681 q 844 644 842 664 q 846 604 846 625 q 832 482 846 551 q 790 325 818 413 l 685 4 l 540 4 l 606 203 l 294 203 q 295 153 293 178 q 300 101 297 128 q 308 61 303 82 q 317 21 313 40 q 331 -26 324 -3 q 344 -74 338 -50 q 348 -87 346 -81 q 351 -99 350 -93 l 219 -139 q 190 -31 204 -86 q 165 79 175 24 q 160 110 163 94 q 157 142 158 125 q 155 172 156 157 q 154 203 154 188 l -4 203 l 40 342 l 175 342 q 247 522 201 439 q 349 667 293 604 q 438 748 392 714 q 533 801 485 782 q 589 819 561 813 q 643 825 617 825 q 770 792 721 825 q 838 681 819 758 l 838 681 m 706 649 q 684 678 700 669 q 643 688 668 688 q 583 674 615 688 q 517 635 550 660 q 484 607 500 622 q 451 574 468 592 q 370 464 404 522 q 317 342 336 406 l 650 342 l 658 367 q 698 508 686 449 q 710 608 710 567 q 709 630 710 619 q 706 649 708 640 l 706 649 m 867 914 l 814 821 l 656 910 l 496 821 l 443 914 l 656 1032 l 867 914 l 867 914 z "},"":{"ha":763,"x_min":0,"x_max":828,"o":"m 810 750 q 816 726 814 738 q 818 703 818 714 q 772 588 818 642 q 669 492 725 535 q 613 450 640 469 q 564 415 585 431 l 479 525 q 513 549 483 528 q 578 597 543 569 q 591 608 585 603 q 604 618 597 613 q 656 665 635 643 q 678 700 678 688 q 677 705 678 703 q 674 708 676 707 q 649 718 663 715 q 621 721 636 721 q 599 719 610 721 q 575 715 588 718 q 533 704 554 711 q 496 690 513 697 q 482 684 489 688 q 469 678 475 681 q 443 662 461 674 q 406 636 425 650 q 378 613 392 625 q 356 589 365 601 q 342 567 347 578 q 336 546 336 556 q 337 538 336 542 q 339 532 338 535 l 338 535 l 440 354 q 392 319 417 336 q 344 283 368 301 q 250 213 297 249 q 156 142 203 178 l 735 142 l 690 4 q 423 4 557 4 q 154 4 289 4 q 40 40 81 4 q 0 125 0 76 q 2 144 0 135 q 7 164 4 154 q 32 210 15 188 q 75 253 49 233 q 122 287 99 269 q 168 322 144 304 q 215 358 192 340 q 261 392 238 375 q 257 399 260 396 q 253 406 254 403 q 249 411 251 408 q 246 417 247 414 q 213 476 228 446 q 197 543 199 507 q 295 727 197 644 q 511 840 393 810 q 567 852 539 849 q 621 856 594 856 q 690 848 657 856 q 749 824 722 840 q 786 792 771 810 q 810 750 801 774 l 810 750 m 828 942 l 775 849 l 617 938 l 457 849 l 404 942 l 617 1060 l 828 942 l 828 942 z "},"":{"ha":790,"x_min":-4,"x_max":964,"o":"m 838 681 q 844 644 842 664 q 846 604 846 625 q 832 482 846 551 q 790 325 818 413 l 685 4 l 540 4 l 606 203 l 294 203 q 295 153 293 178 q 300 101 297 128 q 308 61 303 82 q 317 21 313 40 q 331 -26 324 -3 q 344 -74 338 -50 q 348 -87 346 -81 q 351 -99 350 -93 l 219 -139 q 190 -31 204 -86 q 165 79 175 24 q 160 110 163 94 q 157 142 158 125 q 155 172 156 157 q 154 203 154 188 l -4 203 l 40 342 l 175 342 q 247 522 201 439 q 349 667 293 604 q 438 748 392 714 q 533 801 485 782 q 589 819 561 813 q 643 825 617 825 q 770 792 721 825 q 838 681 819 758 l 838 681 m 706 649 q 684 678 700 669 q 643 688 668 688 q 583 674 615 688 q 517 635 550 660 q 484 607 500 622 q 451 574 468 592 q 370 464 404 522 q 317 342 336 406 l 650 342 l 658 367 q 698 508 686 449 q 710 608 710 567 q 709 630 710 619 q 706 649 708 640 l 706 649 m 964 947 l 660 844 l 625 946 l 929 1049 l 964 947 l 964 947 z "},"":{"ha":763,"x_min":0,"x_max":822,"o":"m 810 750 q 816 726 814 738 q 818 703 818 714 q 772 588 818 642 q 669 492 725 535 q 613 450 640 469 q 564 415 585 431 l 479 525 q 513 549 483 528 q 578 597 543 569 q 591 608 585 603 q 604 618 597 613 q 656 665 635 643 q 678 700 678 688 q 677 705 678 703 q 674 708 676 707 q 649 718 663 715 q 621 721 636 721 q 599 719 610 721 q 575 715 588 718 q 533 704 554 711 q 496 690 513 697 q 482 684 489 688 q 469 678 475 681 q 443 662 461 674 q 406 636 425 650 q 378 613 392 625 q 356 589 365 601 q 342 567 347 578 q 336 546 336 556 q 337 538 336 542 q 339 532 338 535 l 338 535 l 440 354 q 392 319 417 336 q 344 283 368 301 q 250 213 297 249 q 156 142 203 178 l 735 142 l 690 4 q 423 4 557 4 q 154 4 289 4 q 40 40 81 4 q 0 125 0 76 q 2 144 0 135 q 7 164 4 154 q 32 210 15 188 q 75 253 49 233 q 122 287 99 269 q 168 322 144 304 q 215 358 192 340 q 261 392 238 375 q 257 399 260 396 q 253 406 254 403 q 249 411 251 408 q 246 417 247 414 q 213 476 228 446 q 197 543 199 507 q 295 727 197 644 q 511 840 393 810 q 567 852 539 849 q 621 856 594 856 q 690 848 657 856 q 749 824 722 840 q 786 792 771 810 q 810 750 801 774 l 810 750 m 629 997 l 550 869 l 460 926 l 539 1053 l 629 997 l 629 997 m 822 997 l 744 869 l 653 926 l 731 1053 l 822 997 l 822 997 z "},"":{"ha":763,"x_min":0,"x_max":818,"o":"m 810 750 q 816 726 814 738 q 818 703 818 714 q 772 588 818 642 q 669 492 725 535 q 613 450 640 469 q 564 415 585 431 l 479 525 q 513 549 483 528 q 578 597 543 569 q 591 608 585 603 q 604 618 597 613 q 656 665 635 643 q 678 700 678 688 q 677 705 678 703 q 674 708 676 707 q 649 718 663 715 q 621 721 636 721 q 599 719 610 721 q 575 715 588 718 q 533 704 554 711 q 496 690 513 697 q 482 684 489 688 q 469 678 475 681 q 443 662 461 674 q 406 636 425 650 q 378 613 392 625 q 356 589 365 601 q 342 567 347 578 q 336 546 336 556 q 337 538 336 542 q 339 532 338 535 l 338 535 l 440 354 q 392 319 417 336 q 344 283 368 301 q 250 213 297 249 q 156 142 203 178 l 735 142 l 690 4 q 423 4 557 4 q 154 4 289 4 q 40 40 81 4 q 0 125 0 76 q 2 144 0 135 q 7 164 4 154 q 32 210 15 188 q 75 253 49 233 q 122 287 99 269 q 168 322 144 304 q 215 358 192 340 q 261 392 238 375 q 257 399 260 396 q 253 406 254 403 q 249 411 251 408 q 246 417 247 414 q 213 476 228 446 q 197 543 199 507 q 295 727 197 644 q 511 840 393 810 q 567 852 539 849 q 621 856 594 856 q 690 848 657 856 q 749 824 722 840 q 786 792 771 810 q 810 750 801 774 l 810 750 m 699 976 l 664 875 l 360 978 l 394 1079 l 699 976 l 699 976 z "},"":{"ha":651,"x_min":1,"x_max":911,"o":"m 744 653 q 672 428 708 540 q 600 206 636 317 q 496 63 574 122 q 331 4 418 4 l 1 4 l 46 142 q 117 142 82 142 q 189 142 153 142 q 260 142 224 142 q 331 142 296 142 q 342 142 336 142 q 353 144 347 143 q 424 183 390 153 q 469 247 458 213 q 506 359 488 303 q 542 471 524 415 q 578 583 560 526 q 614 694 596 639 q 616 701 615 697 q 617 706 617 704 q 606 708 611 708 q 594 708 601 708 q 570 705 583 708 q 544 697 557 701 q 515 683 529 690 q 488 667 500 675 q 465 652 475 660 q 447 639 456 644 q 422 620 436 631 q 393 597 407 610 q 331 533 360 569 q 303 457 303 497 q 305 438 303 447 q 311 419 307 429 q 332 382 319 400 q 358 346 344 364 q 360 343 358 344 q 363 340 361 342 q 372 327 367 333 q 381 314 376 321 l 264 239 q 250 260 257 250 q 236 279 243 269 q 209 319 222 299 q 185 364 196 340 q 170 411 175 388 q 165 458 165 435 q 190 564 165 513 q 254 654 214 615 q 288 685 269 669 q 325 718 306 701 q 421 787 369 754 q 525 835 472 819 q 563 844 544 842 q 600 847 582 847 q 649 841 625 847 q 694 819 672 835 q 740 769 726 799 q 754 707 754 739 q 751 680 754 693 q 744 653 749 667 l 744 653 m 911 972 l 607 869 l 572 971 l 876 1074 l 911 972 l 911 972 z "},"":{"ha":651,"x_min":1,"x_max":803,"o":"m 744 653 q 672 428 708 540 q 600 206 636 317 q 496 63 574 122 q 331 4 418 4 l 1 4 l 46 142 q 117 142 82 142 q 189 142 153 142 q 260 142 224 142 q 331 142 296 142 q 342 142 336 142 q 353 144 347 143 q 424 183 390 153 q 469 247 458 213 q 506 359 488 303 q 542 471 524 415 q 578 583 560 526 q 614 694 596 639 q 616 701 615 697 q 617 706 617 704 q 606 708 611 708 q 594 708 601 708 q 570 705 583 708 q 544 697 557 701 q 515 683 529 690 q 488 667 500 675 q 465 652 475 660 q 447 639 456 644 q 422 620 436 631 q 393 597 407 610 q 331 533 360 569 q 303 457 303 497 q 305 438 303 447 q 311 419 307 429 q 332 382 319 400 q 358 346 344 364 q 360 343 358 344 q 363 340 361 342 q 372 327 367 333 q 381 314 376 321 l 264 239 q 250 260 257 250 q 236 279 243 269 q 209 319 222 299 q 185 364 196 340 q 170 411 175 388 q 165 458 165 435 q 190 564 165 513 q 254 654 214 615 q 288 685 269 669 q 325 718 306 701 q 421 787 369 754 q 525 835 472 819 q 563 844 544 842 q 600 847 582 847 q 649 841 625 847 q 694 819 672 835 q 740 769 726 799 q 754 707 754 739 q 751 680 754 693 q 744 653 749 667 l 744 653 m 803 919 l 750 826 l 592 915 l 432 826 l 379 919 l 592 1038 l 803 919 l 803 919 z "},"":{"ha":651,"x_min":1,"x_max":808,"o":"m 744 653 q 672 428 708 540 q 600 206 636 317 q 496 63 574 122 q 331 4 418 4 l 1 4 l 46 142 q 117 142 82 142 q 189 142 153 142 q 260 142 224 142 q 331 142 296 142 q 342 142 336 142 q 353 144 347 143 q 424 183 390 153 q 469 247 458 213 q 506 359 488 303 q 542 471 524 415 q 578 583 560 526 q 614 694 596 639 q 616 701 615 697 q 617 706 617 704 q 606 708 611 708 q 594 708 601 708 q 570 705 583 708 q 544 697 557 701 q 515 683 529 690 q 488 667 500 675 q 465 652 475 660 q 447 639 456 644 q 422 620 436 631 q 393 597 407 610 q 331 533 360 569 q 303 457 303 497 q 305 438 303 447 q 311 419 307 429 q 332 382 319 400 q 358 346 344 364 q 360 343 358 344 q 363 340 361 342 q 372 327 367 333 q 381 314 376 321 l 264 239 q 250 260 257 250 q 236 279 243 269 q 209 319 222 299 q 185 364 196 340 q 170 411 175 388 q 165 458 165 435 q 190 564 165 513 q 254 654 214 615 q 288 685 269 669 q 325 718 306 701 q 421 787 369 754 q 525 835 472 819 q 563 844 544 842 q 600 847 582 847 q 649 841 625 847 q 694 819 672 835 q 740 769 726 799 q 754 707 754 739 q 751 680 754 693 q 744 653 749 667 l 744 653 m 615 986 l 536 858 l 446 915 l 525 1042 l 615 986 l 615 986 m 808 986 l 731 858 l 639 915 l 717 1042 l 808 986 l 808 986 z "},"":{"ha":651,"x_min":1,"x_max":754,"o":"m 744 653 q 672 428 708 540 q 600 206 636 317 q 496 63 574 122 q 331 4 418 4 l 1 4 l 46 142 q 117 142 82 142 q 189 142 153 142 q 260 142 224 142 q 331 142 296 142 q 342 142 336 142 q 353 144 347 143 q 424 183 390 153 q 469 247 458 213 q 506 359 488 303 q 542 471 524 415 q 578 583 560 526 q 614 694 596 639 q 616 701 615 697 q 617 706 617 704 q 606 708 611 708 q 594 708 601 708 q 570 705 583 708 q 544 697 557 701 q 515 683 529 690 q 488 667 500 675 q 465 652 475 660 q 447 639 456 644 q 422 620 436 631 q 393 597 407 610 q 331 533 360 569 q 303 457 303 497 q 305 438 303 447 q 311 419 307 429 q 332 382 319 400 q 358 346 344 364 q 360 343 358 344 q 363 340 361 342 q 372 327 367 333 q 381 314 376 321 l 264 239 q 250 260 257 250 q 236 279 243 269 q 209 319 222 299 q 185 364 196 340 q 170 411 175 388 q 165 458 165 435 q 190 564 165 513 q 254 654 214 615 q 288 685 269 669 q 325 718 306 701 q 421 787 369 754 q 525 835 472 819 q 563 844 544 842 q 600 847 582 847 q 649 841 625 847 q 694 819 672 835 q 740 769 726 799 q 754 707 754 739 q 751 680 754 693 q 744 653 749 667 l 744 653 m 710 963 l 675 861 l 371 964 l 406 1065 l 710 963 l 710 963 z "},"":{"ha":857,"x_min":4,"x_max":1010,"o":"m 1010 596 l 965 458 l 810 458 q 665 143 803 282 q 350 4 528 4 q 317 6 333 4 q 283 10 300 7 q 81 129 157 32 q 4 353 4 226 q 144 680 4 535 q 468 825 283 825 q 667 763 579 825 q 792 596 756 701 l 1010 596 l 1010 596 m 672 458 q 663 458 668 458 q 654 458 658 458 q 578 464 614 458 q 515 508 542 469 q 499 542 504 525 q 493 574 493 558 q 500 618 493 596 q 515 664 507 640 q 518 672 517 668 q 521 681 519 676 q 494 685 507 683 q 468 688 481 688 q 240 583 339 688 q 142 353 142 479 q 199 202 142 263 q 347 142 256 142 q 567 239 471 142 q 672 458 664 336 l 672 458 m 689 944 l 385 842 l 350 943 l 654 1046 l 689 944 l 689 944 z "},"":{"ha":857,"x_min":4,"x_max":1010,"o":"m 1010 596 l 965 458 l 810 458 q 665 143 803 282 q 350 4 528 4 q 317 6 333 4 q 283 10 300 7 q 81 129 157 32 q 4 353 4 226 q 144 680 4 535 q 468 825 283 825 q 667 763 579 825 q 792 596 756 701 l 1010 596 l 1010 596 m 672 458 q 663 458 668 458 q 654 458 658 458 q 578 464 614 458 q 515 508 542 469 q 499 542 504 525 q 493 574 493 558 q 500 618 493 596 q 515 664 507 640 q 518 672 517 668 q 521 681 519 676 q 494 685 507 683 q 468 688 481 688 q 240 583 339 688 q 142 353 142 479 q 199 202 142 263 q 347 142 256 142 q 567 239 471 142 q 672 458 664 336 l 672 458 m 686 903 l 633 810 l 475 899 l 315 810 l 263 903 l 475 1021 l 686 903 l 686 903 z "},"":{"ha":382,"x_min":0,"x_max":0,"o":""},"":{"ha":382,"x_min":0,"x_max":0,"o":""},"":{"ha":696,"x_min":7,"x_max":810,"o":"m 810 825 q 783 775 796 800 q 756 724 769 750 q 747 709 751 717 q 740 694 743 701 q 719 657 729 676 q 703 618 710 638 q 663 499 682 558 q 624 381 643 439 q 612 340 618 360 q 599 300 606 321 q 574 222 586 261 q 549 142 561 182 l 685 142 l 644 4 l 529 4 q 453 32 486 4 q 410 100 419 60 q 312 30 364 56 q 199 4 260 4 q 49 60 92 4 q 7 206 7 117 q 33 370 7 289 q 89 531 58 451 q 108 580 99 556 q 126 629 118 604 q 140 672 136 657 q 144 692 144 686 q 144 697 144 694 q 140 699 143 699 q 111 707 126 704 q 81 713 96 710 q 76 714 78 714 q 71 715 74 714 q 51 718 61 717 q 32 722 42 719 l 60 856 q 79 852 69 854 q 99 849 89 850 q 105 848 101 849 q 111 847 108 847 q 149 840 129 844 q 186 829 168 836 q 263 776 242 810 q 283 703 283 743 q 279 660 283 682 q 268 617 275 639 q 257 585 263 601 q 246 553 251 569 q 238 536 242 544 q 232 519 235 528 q 219 487 226 504 q 206 451 213 469 q 191 410 199 431 q 176 367 183 389 q 153 282 163 324 q 144 206 144 240 q 156 160 144 178 q 199 142 168 142 q 374 273 296 142 q 525 561 453 404 q 531 574 528 568 q 538 588 535 581 q 542 598 540 593 q 547 607 544 603 q 561 637 554 622 q 574 667 568 651 q 593 719 585 693 q 608 772 601 746 q 610 776 610 774 q 611 779 611 778 q 617 802 614 790 q 625 825 621 814 l 810 825 l 810 825 m 708 950 l 404 847 l 369 949 l 674 1051 l 708 950 l 708 950 z "},"":{"ha":696,"x_min":7,"x_max":810,"o":"m 810 825 q 783 775 796 800 q 756 724 769 750 q 747 709 751 717 q 740 694 743 701 q 719 657 729 676 q 703 618 710 638 q 663 499 682 558 q 624 381 643 439 q 612 340 618 360 q 599 300 606 321 q 574 222 586 261 q 549 142 561 182 l 685 142 l 644 4 l 529 4 q 453 32 486 4 q 410 100 419 60 q 312 30 364 56 q 199 4 260 4 q 49 60 92 4 q 7 206 7 117 q 33 370 7 289 q 89 531 58 451 q 108 580 99 556 q 126 629 118 604 q 140 672 136 657 q 144 692 144 686 q 144 697 144 694 q 140 699 143 699 q 111 707 126 704 q 81 713 96 710 q 76 714 78 714 q 71 715 74 714 q 51 718 61 717 q 32 722 42 719 l 60 856 q 79 852 69 854 q 99 849 89 850 q 105 848 101 849 q 111 847 108 847 q 149 840 129 844 q 186 829 168 836 q 263 776 242 810 q 283 703 283 743 q 279 660 283 682 q 268 617 275 639 q 257 585 263 601 q 246 553 251 569 q 238 536 242 544 q 232 519 235 528 q 219 487 226 504 q 206 451 213 469 q 191 410 199 431 q 176 367 183 389 q 153 282 163 324 q 144 206 144 240 q 156 160 144 178 q 199 142 168 142 q 374 273 296 142 q 525 561 453 404 q 531 574 528 568 q 538 588 535 581 q 542 598 540 593 q 547 607 544 603 q 561 637 554 622 q 574 667 568 651 q 593 719 585 693 q 608 772 601 746 q 610 776 610 774 q 611 779 611 778 q 617 802 614 790 q 625 825 621 814 l 810 825 l 810 825 m 664 928 l 611 835 l 453 924 l 293 835 l 240 928 l 453 1046 l 664 928 l 664 928 z "},"":{"ha":696,"x_min":7,"x_max":810,"o":"m 810 825 q 783 775 796 800 q 756 724 769 750 q 747 709 751 717 q 740 694 743 701 q 719 657 729 676 q 703 618 710 638 q 663 499 682 558 q 624 381 643 439 q 612 340 618 360 q 599 300 606 321 q 574 222 586 261 q 549 142 561 182 l 685 142 l 644 4 l 529 4 q 453 32 486 4 q 410 100 419 60 q 312 30 364 56 q 199 4 260 4 q 49 60 92 4 q 7 206 7 117 q 33 370 7 289 q 89 531 58 451 q 108 580 99 556 q 126 629 118 604 q 140 672 136 657 q 144 692 144 686 q 144 697 144 694 q 140 699 143 699 q 111 707 126 704 q 81 713 96 710 q 76 714 78 714 q 71 715 74 714 q 51 718 61 717 q 32 722 42 719 l 60 856 q 79 852 69 854 q 99 849 89 850 q 105 848 101 849 q 111 847 108 847 q 149 840 129 844 q 186 829 168 836 q 263 776 242 810 q 283 703 283 743 q 279 660 283 682 q 268 617 275 639 q 257 585 263 601 q 246 553 251 569 q 238 536 242 544 q 232 519 235 528 q 219 487 226 504 q 206 451 213 469 q 191 410 199 431 q 176 367 183 389 q 153 282 163 324 q 144 206 144 240 q 156 160 144 178 q 199 142 168 142 q 374 273 296 142 q 525 561 453 404 q 531 574 528 568 q 538 588 535 581 q 542 598 540 593 q 547 607 544 603 q 561 637 554 622 q 574 667 568 651 q 593 719 585 693 q 608 772 601 746 q 610 776 610 774 q 611 779 611 778 q 617 802 614 790 q 625 825 621 814 l 810 825 l 810 825 m 568 935 l 533 833 l 229 936 l 264 1038 l 568 935 l 568 935 z "},"":{"ha":275,"x_min":4,"x_max":289,"o":"m 289 140 l 244 3 l 119 3 q 36 37 68 3 q 4 117 4 71 q 5 127 4 122 q 6 138 6 132 q 8 147 7 142 q 11 157 10 151 l 106 453 l 251 453 l 151 140 l 289 140 l 289 140 z "},"":{"ha":474,"x_min":29,"x_max":453,"o":"m 453 769 l 400 676 l 242 765 l 82 676 l 29 769 l 242 888 l 453 769 l 453 769 z "},"":{"ha":474,"x_min":21,"x_max":450,"o":"m 450 763 q 383 697 425 719 q 294 674 342 674 q 251 679 272 674 q 210 696 229 685 q 193 702 201 700 q 176 704 185 704 q 142 695 158 704 q 114 669 125 686 l 21 722 q 88 788 46 765 q 176 811 129 811 q 220 806 199 811 q 261 789 242 800 q 278 783 269 785 q 294 781 286 781 q 331 790 314 781 q 357 817 347 799 l 450 763 l 450 763 z "},"":{"ha":694,"x_min":0,"x_max":0,"o":""},"":{"ha":694,"x_min":0,"x_max":0,"o":""},"":{"ha":694,"x_min":0,"x_max":0,"o":""},"":{"ha":399,"x_min":110,"x_max":304,"o":"m 304 779 q 297 742 304 760 q 275 711 289 725 q 244 690 263 697 q 207 683 226 683 q 139 712 168 683 q 110 779 110 740 q 117 817 110 800 q 138 847 125 835 l 138 849 q 170 869 153 863 q 207 876 188 876 q 276 848 247 876 q 304 779 304 819 l 304 779 m 232 779 q 225 798 232 790 q 207 806 218 806 q 197 803 201 806 q 189 799 192 801 q 183 791 185 796 q 182 779 182 786 q 190 762 182 769 q 207 754 197 754 q 217 756 213 754 q 225 761 222 758 q 230 769 228 764 q 232 779 232 774 l 232 779 z "},"":{"ha":399,"x_min":31,"x_max":310,"o":"m 299 -199 q 250 -254 282 -233 q 182 -275 218 -275 q 150 -275 171 -275 q 106 -275 129 -275 q 91 -275 99 -275 q 78 -275 83 -275 q 51 -275 63 -275 q 31 -275 39 -275 l 72 -174 l 164 -174 q 197 -165 188 -172 q 204 -147 206 -157 q 203 -142 204 -144 q 203 -137 203 -140 q 194 -124 200 -131 q 182 -112 189 -117 q 145 -90 164 -101 q 108 -68 126 -79 q 149 0 128 -33 q 190 68 169 33 l 281 13 l 254 -35 q 295 -83 281 -54 q 310 -144 310 -112 q 307 -172 310 -158 q 299 -197 304 -185 l 299 -199 z "},"":{"ha":694,"x_min":0,"x_max":0,"o":""},"":{"ha":694,"x_min":0,"x_max":0,"o":""},"":{"ha":474,"x_min":29,"x_max":453,"o":"m 453 782 l 242 665 l 29 782 l 82 875 l 242 786 l 400 875 l 453 782 l 453 782 z "},"":{"ha":694,"x_min":0,"x_max":0,"o":""},"":{"ha":694,"x_min":0,"x_max":0,"o":""},"":{"ha":729,"x_min":1,"x_max":928,"o":"m 821 789 q 836 753 832 772 q 840 715 840 735 q 840 703 840 710 q 839 690 839 696 q 818 622 833 656 q 785 563 803 589 q 722 474 753 518 q 658 386 690 431 l 546 465 q 609 554 578 510 q 672 642 640 599 q 682 656 678 649 q 690 672 686 664 q 698 692 694 682 q 703 711 701 703 q 667 708 689 713 q 614 690 646 703 q 576 676 596 683 q 535 658 556 668 q 505 644 519 651 q 476 628 490 636 q 457 615 468 622 q 435 597 446 607 q 399 563 415 582 q 379 524 383 543 q 378 517 378 519 q 378 511 378 514 q 381 494 378 503 q 392 478 385 486 q 481 380 436 429 q 571 282 526 331 q 591 250 585 268 q 600 213 597 232 q 600 206 600 210 q 600 200 600 203 q 596 160 600 179 q 583 122 592 140 q 515 37 561 69 q 408 4 468 4 l 1 4 l 46 142 q 227 142 136 142 q 408 142 318 142 q 445 158 429 142 q 463 196 461 175 q 420 243 442 219 q 376 290 399 267 q 333 338 354 314 q 289 385 311 361 q 251 447 263 413 q 239 515 239 481 q 310 670 242 606 q 461 775 379 735 q 515 800 489 789 q 567 821 542 811 q 622 838 592 831 q 683 849 653 846 q 692 849 688 849 q 701 849 697 849 q 769 835 738 849 q 821 789 800 822 l 821 789 m 928 982 l 717 865 l 504 982 l 557 1075 l 717 986 l 875 1075 l 928 982 l 928 982 z "},"":{"ha":358,"x_min":0,"x_max":490,"o":"m 349 213 q 292 61 349 119 q 140 3 235 3 l 0 3 l 44 140 l 140 140 q 194 158 176 140 q 211 213 211 175 q 207 249 211 232 q 196 281 203 267 q 151 219 169 244 q 132 192 132 193 l 21 272 q 51 314 21 272 q 118 406 81 356 q 183 497 153 456 q 214 540 214 539 l 338 479 q 321 456 336 478 q 282 401 306 433 q 331 313 314 363 q 349 213 349 264 l 349 213 m 490 657 l 279 540 l 67 657 l 119 750 l 279 661 l 438 750 l 490 657 l 490 657 z "},"":{"ha":694,"x_min":0,"x_max":0,"o":""},"":{"ha":694,"x_min":0,"x_max":0,"o":""},"":{"ha":694,"x_min":0,"x_max":0,"o":""},"":{"ha":818,"x_min":8,"x_max":907,"o":"m 864 754 q 897 692 886 725 q 907 622 907 658 q 876 488 907 558 q 786 344 844 417 q 702 253 750 299 q 597 164 654 208 q 481 88 538 118 q 368 38 425 57 q 321 24 344 29 q 275 15 297 18 q 163 4 219 6 q 50 3 107 3 q 44 3 47 3 q 38 3 40 3 l 103 203 l 8 203 l 53 340 l 147 340 l 213 542 l 357 542 l 292 340 l 379 340 l 335 203 l 247 203 l 229 147 q 380 191 310 158 q 514 274 450 224 q 566 317 533 289 q 633 379 599 344 q 686 437 660 407 q 732 499 713 467 q 763 556 751 528 q 774 611 774 585 q 767 646 774 629 q 747 676 761 663 q 708 699 733 692 q 647 706 682 706 q 602 703 626 706 q 550 696 578 701 q 370 649 467 682 q 175 572 274 617 q 139 556 157 564 q 103 539 121 547 l 43 661 q 101 689 72 675 q 158 715 129 703 q 349 788 254 757 q 528 832 443 818 q 584 840 556 836 q 642 843 613 843 q 765 824 706 842 q 864 754 825 806 l 864 754 z "},"":{"ha":646,"x_min":4,"x_max":697,"o":"m 697 692 l 611 646 q 620 599 618 624 q 622 550 622 575 q 622 527 622 539 q 619 504 621 515 q 617 480 618 492 q 614 457 615 468 q 600 387 610 424 q 579 314 590 350 q 566 277 572 296 q 554 240 560 258 q 536 190 544 215 q 519 142 528 165 l 658 142 l 614 3 l 489 3 q 428 20 454 3 q 388 64 401 38 q 294 19 344 36 q 188 3 244 3 q 53 46 103 1 q 4 158 4 90 q 10 206 4 182 q 29 257 17 231 q 158 386 72 340 q 336 446 243 432 q 378 450 357 449 q 418 451 399 451 q 447 451 433 451 q 474 449 460 450 q 482 499 479 474 q 485 551 485 525 q 485 566 485 558 q 483 581 485 574 l 358 517 l 310 611 l 442 679 q 423 687 433 685 q 401 689 413 689 q 391 688 396 689 q 382 688 386 688 q 340 674 360 683 q 307 654 319 665 l 221 763 q 288 802 251 786 q 363 824 324 818 q 381 826 372 825 q 400 826 390 826 q 493 807 449 826 q 568 744 538 788 l 649 785 l 697 692 l 697 692 m 426 314 q 379 312 404 314 q 329 306 354 310 q 226 268 275 294 q 153 194 176 242 q 145 177 147 185 q 143 163 143 169 q 154 146 143 151 q 188 140 165 140 q 330 194 269 142 q 426 314 390 246 l 426 314 z "},"":{"ha":382,"x_min":0,"x_max":0,"o":""},"":{"ha":382,"x_min":0,"x_max":0,"o":""},"":{"ha":736,"x_min":-31,"x_max":804,"o":"m 800 492 q 792 438 797 465 q 778 382 786 410 q 667 168 744 265 q 461 71 590 71 q 423 71 444 71 q 378 71 401 71 q 297 71 333 71 q 265 71 260 71 l 335 210 q 372 210 358 210 q 399 210 386 210 q 425 210 411 210 q 461 210 439 210 q 575 276 524 210 q 650 424 626 343 q 663 479 658 451 q 668 532 668 507 q 667 560 668 547 q 661 585 665 574 q 658 588 660 588 q 654 589 657 589 q 639 585 649 589 q 619 576 629 581 q 614 574 617 575 q 610 571 611 572 q 588 559 597 564 q 578 553 579 554 q 401 389 485 476 q 264 193 317 301 l 131 -69 l -31 -69 l 271 514 q 297 574 289 549 q 304 618 304 600 q 256 677 304 668 q 136 688 207 686 q 133 688 135 688 q 131 688 132 688 l 175 824 l 258 824 q 406 761 365 824 q 440 617 446 699 q 543 692 489 660 q 656 725 597 725 q 662 725 658 725 q 669 724 665 725 q 676 723 672 724 q 682 722 679 722 q 778 657 753 710 q 804 543 804 604 q 804 531 804 538 q 803 518 804 524 q 802 505 803 511 q 800 492 801 499 l 800 492 z "},"":{"ha":644,"x_min":-81,"x_max":660,"o":"m 660 142 l 615 3 l 225 3 l 269 142 l 326 142 q 345 143 336 142 q 364 149 354 144 q 440 198 406 163 q 474 275 474 233 q 460 305 474 296 q 426 314 446 314 q 358 288 396 314 q 279 215 319 261 q 201 106 239 168 q 140 -26 164 44 l 64 -262 l -81 -262 l 10 17 q 71 203 40 111 q 132 389 101 296 q 152 469 144 432 q 161 542 160 506 q 161 551 161 546 q 161 560 161 556 q 157 624 161 592 q 146 690 153 656 l 281 719 q 293 651 289 683 q 299 586 297 618 q 299 574 299 581 q 299 561 299 568 q 293 482 299 522 q 276 397 288 442 q 351 436 313 421 q 431 451 389 451 q 461 449 446 451 q 492 442 476 447 q 579 378 547 424 q 611 275 611 332 q 600 205 611 239 q 569 142 589 171 l 660 142 l 660 142 z "},"":{"ha":694,"x_min":0,"x_max":0,"o":""},"":{"ha":694,"x_min":0,"x_max":0,"o":""},"":{"ha":694,"x_min":0,"x_max":0,"o":""},"":{"ha":694,"x_min":0,"x_max":0,"o":""},"":{"ha":694,"x_min":0,"x_max":0,"o":""},"":{"ha":694,"x_min":0,"x_max":0,"o":""},"":{"ha":694,"x_min":0,"x_max":0,"o":""},"":{"ha":694,"x_min":0,"x_max":0,"o":""},"":{"ha":694,"x_min":0,"x_max":0,"o":""},"":{"ha":382,"x_min":0,"x_max":0,"o":""},"":{"ha":382,"x_min":0,"x_max":0,"o":""},"":{"ha":382,"x_min":0,"x_max":0,"o":""},"":{"ha":382,"x_min":0,"x_max":0,"o":""},"":{"ha":382,"x_min":0,"x_max":0,"o":""},"":{"ha":382,"x_min":0,"x_max":0,"o":""},"":{"ha":382,"x_min":0,"x_max":0,"o":""},"":{"ha":382,"x_min":0,"x_max":0,"o":""},"":{"ha":382,"x_min":0,"x_max":0,"o":""},"":{"ha":382,"x_min":0,"x_max":0,"o":""},"":{"ha":694,"x_min":0,"x_max":0,"o":""},"":{"ha":382,"x_min":0,"x_max":0,"o":""},"":{"ha":663,"x_min":3,"x_max":660,"o":"m 660 483 l 614 346 l 3 346 l 47 483 l 660 483 l 660 483 z "},"":{"ha":694,"x_min":0,"x_max":0,"o":""},"":{"ha":694,"x_min":0,"x_max":0,"o":""},"":{"ha":349,"x_min":31,"x_max":336,"o":"m 183 517 q 291 472 246 517 q 336 364 336 426 q 291 257 336 301 q 183 213 246 213 q 76 257 121 213 q 31 364 31 301 q 76 472 31 426 q 183 517 121 517 l 183 517 z "},"":{"ha":382,"x_min":0,"x_max":0,"o":""},"":{"ha":694,"x_min":0,"x_max":0,"o":""},"":{"ha":382,"x_min":0,"x_max":0,"o":""},"":{"ha":694,"x_min":0,"x_max":0,"o":""},"":{"ha":694,"x_min":0,"x_max":0,"o":""},"":{"ha":694,"x_min":0,"x_max":0,"o":""},"":{"ha":694,"x_min":0,"x_max":0,"o":""},"":{"ha":694,"x_min":0,"x_max":0,"o":""},"":{"ha":694,"x_min":0,"x_max":0,"o":""},"":{"ha":694,"x_min":0,"x_max":0,"o":""},"":{"ha":694,"x_min":0,"x_max":0,"o":""},"":{"ha":694,"x_min":0,"x_max":0,"o":""},"":{"ha":694,"x_min":0,"x_max":0,"o":""},"":{"ha":382,"x_min":0,"x_max":0,"o":""},"":{"ha":694,"x_min":0,"x_max":0,"o":""},"":{"ha":382,"x_min":0,"x_max":0,"o":""},"":{"ha":382,"x_min":0,"x_max":0,"o":""},"":{"ha":382,"x_min":0,"x_max":0,"o":""},"":{"ha":382,"x_min":0,"x_max":0,"o":""},"":{"ha":382,"x_min":0,"x_max":0,"o":""},"":{"ha":382,"x_min":0,"x_max":0,"o":""},"":{"ha":382,"x_min":0,"x_max":0,"o":""},"":{"ha":382,"x_min":0,"x_max":0,"o":""},"":{"ha":382,"x_min":0,"x_max":0,"o":""},"":{"ha":382,"x_min":0,"x_max":0,"o":""},"":{"ha":382,"x_min":0,"x_max":0,"o":""},"":{"ha":382,"x_min":0,"x_max":0,"o":""},"":{"ha":382,"x_min":0,"x_max":0,"o":""},"":{"ha":382,"x_min":0,"x_max":0,"o":""},"":{"ha":382,"x_min":0,"x_max":0,"o":""},"":{"ha":382,"x_min":0,"x_max":0,"o":""},"":{"ha":382,"x_min":0,"x_max":0,"o":""},"":{"ha":382,"x_min":0,"x_max":0,"o":""},"":{"ha":382,"x_min":0,"x_max":0,"o":""},"":{"ha":382,"x_min":0,"x_max":0,"o":""},"":{"ha":382,"x_min":0,"x_max":0,"o":""},"":{"ha":382,"x_min":0,"x_max":0,"o":""},"":{"ha":382,"x_min":0,"x_max":0,"o":""},"":{"ha":382,"x_min":0,"x_max":0,"o":""},"":{"ha":382,"x_min":0,"x_max":0,"o":""},"":{"ha":382,"x_min":0,"x_max":0,"o":""},"":{"ha":382,"x_min":0,"x_max":0,"o":""},"":{"ha":382,"x_min":0,"x_max":0,"o":""},"":{"ha":382,"x_min":0,"x_max":0,"o":""},"":{"ha":382,"x_min":0,"x_max":0,"o":""},"":{"ha":382,"x_min":0,"x_max":0,"o":""},"":{"ha":382,"x_min":0,"x_max":0,"o":""},"":{"ha":382,"x_min":0,"x_max":0,"o":""},"":{"ha":382,"x_min":0,"x_max":0,"o":""},"":{"ha":382,"x_min":0,"x_max":0,"o":""},"":{"ha":382,"x_min":0,"x_max":0,"o":""},"":{"ha":382,"x_min":0,"x_max":0,"o":""},"":{"ha":382,"x_min":0,"x_max":0,"o":""},"":{"ha":382,"x_min":0,"x_max":0,"o":""},"":{"ha":382,"x_min":0,"x_max":0,"o":""},"":{"ha":382,"x_min":0,"x_max":0,"o":""},"":{"ha":382,"x_min":0,"x_max":0,"o":""},"":{"ha":382,"x_min":0,"x_max":0,"o":""},"":{"ha":382,"x_min":0,"x_max":0,"o":""},"":{"ha":382,"x_min":0,"x_max":0,"o":""},"":{"ha":382,"x_min":0,"x_max":0,"o":""},"":{"ha":382,"x_min":0,"x_max":0,"o":""},"":{"ha":382,"x_min":0,"x_max":0,"o":""},"":{"ha":382,"x_min":0,"x_max":0,"o":""},"":{"ha":382,"x_min":0,"x_max":0,"o":""},"":{"ha":382,"x_min":0,"x_max":0,"o":""},"":{"ha":382,"x_min":0,"x_max":0,"o":""},"":{"ha":382,"x_min":0,"x_max":0,"o":""},"":{"ha":382,"x_min":0,"x_max":0,"o":""},"":{"ha":382,"x_min":0,"x_max":0,"o":""},"":{"ha":382,"x_min":0,"x_max":0,"o":""},"":{"ha":382,"x_min":0,"x_max":0,"o":""},"":{"ha":382,"x_min":0,"x_max":0,"o":""},"":{"ha":382,"x_min":0,"x_max":0,"o":""},"":{"ha":382,"x_min":0,"x_max":0,"o":""},"":{"ha":382,"x_min":0,"x_max":0,"o":""},"":{"ha":382,"x_min":0,"x_max":0,"o":""},"":{"ha":382,"x_min":0,"x_max":0,"o":""},"":{"ha":382,"x_min":0,"x_max":0,"o":""},"":{"ha":382,"x_min":0,"x_max":0,"o":""},"":{"ha":382,"x_min":0,"x_max":0,"o":""},"":{"ha":382,"x_min":0,"x_max":0,"o":""},"":{"ha":382,"x_min":0,"x_max":0,"o":""},"":{"ha":382,"x_min":0,"x_max":0,"o":""},"":{"ha":382,"x_min":0,"x_max":0,"o":""},"":{"ha":382,"x_min":0,"x_max":0,"o":""},"":{"ha":382,"x_min":0,"x_max":0,"o":""},"":{"ha":382,"x_min":0,"x_max":0,"o":""},"":{"ha":382,"x_min":0,"x_max":0,"o":""},"":{"ha":382,"x_min":0,"x_max":0,"o":""},"":{"ha":382,"x_min":0,"x_max":0,"o":""},"":{"ha":382,"x_min":0,"x_max":0,"o":""},"":{"ha":382,"x_min":0,"x_max":0,"o":""},"":{"ha":382,"x_min":0,"x_max":0,"o":""},"":{"ha":382,"x_min":0,"x_max":0,"o":""},"":{"ha":382,"x_min":0,"x_max":0,"o":""},"":{"ha":382,"x_min":0,"x_max":0,"o":""},"":{"ha":382,"x_min":0,"x_max":0,"o":""},"":{"ha":382,"x_min":0,"x_max":0,"o":""},"":{"ha":382,"x_min":0,"x_max":0,"o":""},"":{"ha":382,"x_min":0,"x_max":0,"o":""},"":{"ha":382,"x_min":0,"x_max":0,"o":""},"":{"ha":382,"x_min":0,"x_max":0,"o":""},"":{"ha":382,"x_min":0,"x_max":0,"o":""},"":{"ha":382,"x_min":0,"x_max":0,"o":""},"":{"ha":382,"x_min":0,"x_max":0,"o":""},"":{"ha":382,"x_min":0,"x_max":0,"o":""},"":{"ha":382,"x_min":0,"x_max":0,"o":""},"":{"ha":382,"x_min":0,"x_max":0,"o":""},"":{"ha":382,"x_min":0,"x_max":0,"o":""},"":{"ha":382,"x_min":0,"x_max":0,"o":""},"":{"ha":382,"x_min":0,"x_max":0,"o":""},"":{"ha":382,"x_min":0,"x_max":0,"o":""},"":{"ha":382,"x_min":0,"x_max":0,"o":""},"":{"ha":382,"x_min":0,"x_max":0,"o":""},"":{"ha":382,"x_min":0,"x_max":0,"o":""},"":{"ha":382,"x_min":0,"x_max":0,"o":""},"":{"ha":382,"x_min":0,"x_max":0,"o":""},"":{"ha":382,"x_min":0,"x_max":0,"o":""},"":{"ha":382,"x_min":0,"x_max":0,"o":""},"":{"ha":382,"x_min":0,"x_max":0,"o":""},"":{"ha":382,"x_min":0,"x_max":0,"o":""},"":{"ha":382,"x_min":0,"x_max":0,"o":""},"":{"ha":382,"x_min":0,"x_max":0,"o":""},"":{"ha":382,"x_min":0,"x_max":0,"o":""},"":{"ha":382,"x_min":0,"x_max":0,"o":""},"":{"ha":382,"x_min":0,"x_max":0,"o":""},"":{"ha":382,"x_min":0,"x_max":0,"o":""},"":{"ha":382,"x_min":0,"x_max":0,"o":""},"":{"ha":382,"x_min":0,"x_max":0,"o":""},"":{"ha":382,"x_min":0,"x_max":0,"o":""},"":{"ha":382,"x_min":0,"x_max":0,"o":""},"":{"ha":382,"x_min":0,"x_max":0,"o":""},"":{"ha":382,"x_min":0,"x_max":0,"o":""},"":{"ha":382,"x_min":0,"x_max":0,"o":""},"":{"ha":382,"x_min":0,"x_max":0,"o":""}}}
